#N canvas 212 337 1286 804 12;
#X text 150 -958 primary in KINECT;
#N canvas 0 22 1349 686 3routePositions 0;
#X obj -467 64 spigot;
#X obj -289 68 spigot;
#X obj -123 68 spigot;
#X obj -365 -392 hsl 300 15 -550 450 0 0 empty empty empty -2 -8 0
10 -262144 -1 -1 0 1;
#X obj -105 94 bng 15 250 50 0 empty empty empty 17 7 0 10 -262144
-1 -1;
#X obj -275 95 bng 15 250 50 0 empty empty empty 17 7 0 10 -262144
-1 -1;
#X obj -449 91 bng 15 250 50 0 empty empty empty 17 7 0 10 -262144
-1 -1;
#X obj -452 -304 &&;
#X floatatom -454 -266 5 0 0 0 - - -;
#X obj -361 -305 &&;
#X floatatom -361 -270 5 0 0 0 - - -;
#X obj -280 -307 &&;
#X floatatom -280 -272 5 0 0 0 - - -;
#X obj -457 -161 onebang;
#X obj -287 -160 onebang;
#X obj -121 -161 onebang;
#X msg -458 27 1;
#X msg -425 28 0;
#X obj -458 -124 bng 15 250 50 0 empty empty empty 17 7 0 10 -262144
-1 -1;
#X obj -288 -122 bng 15 250 50 0 empty empty empty 17 7 0 10 -262144
-1 -1;
#X obj -122 -123 bng 15 250 50 0 empty empty empty 17 7 0 10 -262144
-1 -1;
#X msg -288 31 1;
#X msg -255 32 0;
#X msg -122 25 1;
#X msg -89 26 0;
#X obj -457 -234 sel 1 0;
#X obj -369 -231 sel 1 0;
#X obj -292 -233 sel 1 0;
#X obj -405 -161 onebang;
#X obj -226 -158 onebang;
#X obj -54 -159 onebang;
#X obj -403 -122 bng 15 250 50 0 empty empty empty 17 7 0 10 -262144
-1 -1;
#X obj -227 -126 bng 15 250 50 0 empty empty empty 17 7 0 10 -262144
-1 -1;
#X obj -54 -126 bng 15 250 50 0 empty empty empty 17 7 0 10 -262144
-1 -1;
#X obj -368 -509 OSCroute /torso;
#X obj -368 -472 unpack f f f;
#X floatatom -368 -440 5 0 0 0 - - -;
#X floatatom -329 -440 5 0 0 0 - - -;
#X floatatom -295 -440 5 0 0 0 - - -;
#X obj -481 133 outlet;
#X obj -129 136 outlet;
#X obj -288 139 outlet;
#X obj -486 -569 inlet;
#X obj -216 -233 loadbang;
#X obj -452 -334 > -550;
#X obj -409 -335 < -183;
#X obj -361 -336 > -183;
#X obj -323 -336 < 183;
#X obj -280 -338 > 183;
#X obj -249 -338 < 550;
#X obj -418 114 OSCroute /torso;
#X obj -418 151 unpack f f f;
#X floatatom -418 183 5 0 0 0 - - -;
#X floatatom -379 183 5 0 0 0 - - -;
#X floatatom -345 183 5 0 0 0 - - -;
#X obj -233 109 OSCroute /torso;
#X obj -233 146 unpack f f f;
#X floatatom -233 178 5 0 0 0 - - -;
#X floatatom -194 178 5 0 0 0 - - -;
#X floatatom -160 178 5 0 0 0 - - -;
#X obj -54 114 OSCroute /torso;
#X obj -54 151 unpack f f f;
#X floatatom -54 183 5 0 0 0 - - -;
#X floatatom -15 183 5 0 0 0 - - -;
#X floatatom 19 183 5 0 0 0 - - -;
#X obj -442 -57 s bangState1;
#X obj -120 -58 s bangState3;
#X obj -280 -45 s bangState2;
#X connect 0 0 6 0;
#X connect 0 0 50 0;
#X connect 0 0 39 0;
#X connect 1 0 5 0;
#X connect 1 0 41 0;
#X connect 1 0 55 0;
#X connect 2 0 4 0;
#X connect 2 0 60 0;
#X connect 2 0 40 0;
#X connect 3 0 44 0;
#X connect 3 0 45 0;
#X connect 3 0 46 0;
#X connect 3 0 47 0;
#X connect 3 0 48 0;
#X connect 3 0 49 0;
#X connect 7 0 8 0;
#X connect 8 0 25 0;
#X connect 9 0 10 0;
#X connect 10 0 26 0;
#X connect 11 0 12 0;
#X connect 12 0 27 0;
#X connect 13 0 18 0;
#X connect 14 0 19 0;
#X connect 15 0 20 0;
#X connect 16 0 0 1;
#X connect 17 0 0 1;
#X connect 18 0 16 0;
#X connect 18 0 28 1;
#X connect 18 0 65 0;
#X connect 19 0 29 1;
#X connect 19 0 21 0;
#X connect 19 0 67 0;
#X connect 20 0 30 1;
#X connect 20 0 23 0;
#X connect 20 0 66 0;
#X connect 21 0 1 1;
#X connect 22 0 1 1;
#X connect 23 0 2 1;
#X connect 24 0 2 1;
#X connect 25 0 13 0;
#X connect 25 1 28 0;
#X connect 26 0 14 0;
#X connect 26 1 29 0;
#X connect 27 0 15 0;
#X connect 27 1 30 0;
#X connect 28 0 31 0;
#X connect 29 0 32 0;
#X connect 30 0 33 0;
#X connect 31 0 17 0;
#X connect 31 0 13 1;
#X connect 32 0 22 0;
#X connect 32 0 14 1;
#X connect 33 0 24 0;
#X connect 33 0 15 1;
#X connect 34 0 35 0;
#X connect 35 0 36 0;
#X connect 35 1 37 0;
#X connect 35 2 38 0;
#X connect 36 0 3 0;
#X connect 42 0 34 0;
#X connect 42 0 1 0;
#X connect 42 0 2 0;
#X connect 42 0 0 0;
#X connect 43 0 13 1;
#X connect 43 0 28 1;
#X connect 43 0 14 1;
#X connect 43 0 29 1;
#X connect 43 0 15 1;
#X connect 43 0 30 1;
#X connect 44 0 7 0;
#X connect 45 0 7 1;
#X connect 46 0 9 0;
#X connect 47 0 9 1;
#X connect 48 0 11 0;
#X connect 49 0 11 1;
#X connect 50 0 51 0;
#X connect 51 0 52 0;
#X connect 51 1 53 0;
#X connect 51 2 54 0;
#X connect 55 0 56 0;
#X connect 56 0 57 0;
#X connect 56 1 58 0;
#X connect 56 2 59 0;
#X connect 60 0 61 0;
#X connect 61 0 62 0;
#X connect 61 1 63 0;
#X connect 61 2 64 0;
#X restore 154 -915 pd 3routePositions;
#X obj 154 -937 dumpOSC 12347;
#X msg 711 -634 disconnect;
#X obj 471 -570 tgl 15 0 empty empty 1=connected 20 8 0 8 -4034 -257985
-1 1 1;
#X floatatom 517 -677 5 0 0 0 - - -;
#X text 567 -677 bundle depth;
#X text 524 -586 see:;
#X obj 471 -706 mrpeach/packOSC;
#X obj 471 -605 mrpeach/udpsend;
#X obj 455 -944 mrpeach/udpreceive 8001;
#X obj 455 -914 mrpeach/unpackOSC;
#X obj 455 -887 mrpeach/pipelist;
#X obj 453 -805 print FromModul8:::;
#X text 444 -972 basic control;
#X text 452 -781 FINAL OUT;
#X obj 486 -730 bng 15 250 50 0 /md8key/ctrl_master_crossfader_slider/1
empty empty 17 7 0 10 -262144 -1 -1;
#X obj 486 -755 r out;
#N canvas 5 29 1414 845 position2 0;
#X floatatom 542 -705 5 0 0 0 - - -;
#X text 605 -831 dunoOSC listens for incoming messages in PD;
#X obj 542 -736 unpack f f f;
#X obj 542 -774 OSCroute /rightHand;
#X obj 675 -737 unpack f f f;
#X floatatom 675 -705 5 0 0 0 - - -;
#X obj 567 -669 -;
#X floatatom 567 -637 5 0 0 0 - - -;
#X floatatom 829 -705 5 0 0 0 - - -;
#X obj 829 -736 unpack f f f;
#X obj 962 -737 unpack f f f;
#X floatatom 962 -705 5 0 0 0 - - -;
#X obj 829 -669 -;
#X floatatom 829 -637 5 0 0 0 - - -;
#X obj 614 -592 pack f f f;
#X obj 641 -669 -;
#X floatatom 641 -637 5 0 0 0 - - -;
#X floatatom 581 -705 5 0 0 0 - - -;
#X floatatom 714 -705 5 0 0 0 - - -;
#X floatatom 622 -705 5 0 0 0 - - -;
#X floatatom 748 -705 5 0 0 0 - - -;
#X obj 706 -669 -;
#X floatatom 706 -637 5 0 0 0 - - -;
#X floatatom 864 -705 5 0 0 0 - - -;
#X floatatom 898 -705 5 0 0 0 - - -;
#X obj 903 -667 -;
#X floatatom 903 -635 5 0 0 0 - - -;
#X floatatom 997 -704 5 0 0 0 - - -;
#X floatatom 1033 -703 5 0 0 0 - - -;
#X obj 977 -668 -;
#X floatatom 977 -636 5 0 0 0 - - -;
#X obj 881 -590 pack f f f;
#X text 605 -875 primary in KINECT;
#X obj 814 -879 inlet;
#X obj 614 -559 s relativeRightHand2;
#X obj 881 -564 s relativeLeftHand2;
#X obj 829 -774 OSCroute /leftHand;
#X obj 675 -774 OSCroute /rightShoulder;
#X obj 964 -774 OSCroute /leftShoulder;
#X text 1431 -421 RightHandRelative;
#X obj 1432 -364 unpack f f f;
#X obj 1454 -211 hsl 128 15 1 0 0 0 empty empty empty -2 -8 0 10 -262144
-1 -1 0 1;
#N canvas 740 247 450 296 map 0;
#X obj 75 114 inlet;
#X obj 226 114 inlet;
#X obj 150 114 inlet;
#X obj 302 114 inlet;
#X obj 378 114 inlet;
#X obj 75 286 outlet;
#X obj 150 140 float \$1;
#X obj 226 140 float \$2;
#X obj 302 140 float \$3;
#X obj 378 140 float \$4;
#X text 306 275 by Adrian Rennertz;
#X obj 371 87 loadbang;
#X obj 75 177 expr if($f2 == $f3 \, -1 \, (((($f1-$f2) / ($f3-$f2))
* ($f5-$f4)) + $f4)) \; $f4 \; $f5 \;;
#X obj 75 265 limit;
#X msg 371 240 0;
#X text 70 18 inlets are (from left to right) input_value - input_range_low
- input_range_high - output_range_low - output_range_high. low and
high can be switched to invert the value. values that exceed the output
range will output the treshold.;
#X connect 0 0 12 0;
#X connect 1 0 7 0;
#X connect 2 0 6 0;
#X connect 3 0 8 0;
#X connect 4 0 9 0;
#X connect 6 0 12 1;
#X connect 7 0 12 2;
#X connect 8 0 12 3;
#X connect 9 0 12 4;
#X connect 11 0 9 0;
#X connect 11 0 8 0;
#X connect 11 0 7 0;
#X connect 11 0 6 0;
#X connect 11 0 14 0;
#X connect 12 0 13 0;
#X connect 12 1 13 1;
#X connect 12 2 13 2;
#X connect 13 0 5 0;
#X connect 14 0 13 3;
#X restore 1432 -244 pd map;
#X msg 1508 -278 0;
#X msg 1540 -278 1;
#N canvas 740 247 450 296 map 0;
#X obj 75 114 inlet;
#X obj 226 114 inlet;
#X obj 150 114 inlet;
#X obj 302 114 inlet;
#X obj 378 114 inlet;
#X obj 75 286 outlet;
#X obj 150 140 float \$1;
#X obj 226 140 float \$2;
#X obj 302 140 float \$3;
#X obj 378 140 float \$4;
#X text 306 275 by Adrian Rennertz;
#X obj 371 87 loadbang;
#X obj 75 177 expr if($f2 == $f3 \, -1 \, (((($f1-$f2) / ($f3-$f2))
* ($f5-$f4)) + $f4)) \; $f4 \; $f5 \;;
#X obj 75 265 limit;
#X msg 371 240 0;
#X text 70 18 inlets are (from left to right) input_value - input_range_low
- input_range_high - output_range_low - output_range_high. low and
high can be switched to invert the value. values that exceed the output
range will output the treshold.;
#X connect 0 0 12 0;
#X connect 1 0 7 0;
#X connect 2 0 6 0;
#X connect 3 0 8 0;
#X connect 4 0 9 0;
#X connect 6 0 12 1;
#X connect 7 0 12 2;
#X connect 8 0 12 3;
#X connect 9 0 12 4;
#X connect 11 0 9 0;
#X connect 11 0 8 0;
#X connect 11 0 7 0;
#X connect 11 0 6 0;
#X connect 11 0 14 0;
#X connect 12 0 13 0;
#X connect 12 1 13 1;
#X connect 12 2 13 2;
#X connect 13 0 5 0;
#X connect 14 0 13 3;
#X restore 1430 -61 pd map;
#X msg 1506 -95 0;
#X msg 1538 -95 1;
#X obj 1434 211 hsl 128 15 1 0 0 0 empty empty empty -2 -8 0 10 -262144
-1 -1 0 1;
#N canvas 740 247 450 296 map 0;
#X obj 75 114 inlet;
#X obj 226 114 inlet;
#X obj 150 114 inlet;
#X obj 302 114 inlet;
#X obj 378 114 inlet;
#X obj 75 286 outlet;
#X obj 150 140 float \$1;
#X obj 226 140 float \$2;
#X obj 302 140 float \$3;
#X obj 378 140 float \$4;
#X text 306 275 by Adrian Rennertz;
#X obj 371 87 loadbang;
#X obj 75 177 expr if($f2 == $f3 \, -1 \, (((($f1-$f2) / ($f3-$f2))
* ($f5-$f4)) + $f4)) \; $f4 \; $f5 \;;
#X obj 75 265 limit;
#X msg 371 240 0;
#X text 70 18 inlets are (from left to right) input_value - input_range_low
- input_range_high - output_range_low - output_range_high. low and
high can be switched to invert the value. values that exceed the output
range will output the treshold.;
#X connect 0 0 12 0;
#X connect 1 0 7 0;
#X connect 2 0 6 0;
#X connect 3 0 8 0;
#X connect 4 0 9 0;
#X connect 6 0 12 1;
#X connect 7 0 12 2;
#X connect 8 0 12 3;
#X connect 9 0 12 4;
#X connect 11 0 9 0;
#X connect 11 0 8 0;
#X connect 11 0 7 0;
#X connect 11 0 6 0;
#X connect 11 0 14 0;
#X connect 12 0 13 0;
#X connect 12 1 13 1;
#X connect 12 2 13 2;
#X connect 13 0 5 0;
#X connect 14 0 13 3;
#X restore 1432 178 pd map;
#X obj 1666 -362 unpack f f f;
#X obj 1644 -219 hsl 128 15 0 1 0 0 empty empty empty -2 -8 0 10 -262144
-1 -1 0 1;
#N canvas 740 247 450 296 map 0;
#X obj 75 114 inlet;
#X obj 226 114 inlet;
#X obj 150 114 inlet;
#X obj 302 114 inlet;
#X obj 378 114 inlet;
#X obj 75 286 outlet;
#X obj 150 140 float \$1;
#X obj 226 140 float \$2;
#X obj 302 140 float \$3;
#X obj 378 140 float \$4;
#X text 306 275 by Adrian Rennertz;
#X obj 371 87 loadbang;
#X obj 75 177 expr if($f2 == $f3 \, -1 \, (((($f1-$f2) / ($f3-$f2))
* ($f5-$f4)) + $f4)) \; $f4 \; $f5 \;;
#X obj 75 265 limit;
#X msg 371 240 0;
#X text 70 18 inlets are (from left to right) input_value - input_range_low
- input_range_high - output_range_low - output_range_high. low and
high can be switched to invert the value. values that exceed the output
range will output the treshold.;
#X connect 0 0 12 0;
#X connect 1 0 7 0;
#X connect 2 0 6 0;
#X connect 3 0 8 0;
#X connect 4 0 9 0;
#X connect 6 0 12 1;
#X connect 7 0 12 2;
#X connect 8 0 12 3;
#X connect 9 0 12 4;
#X connect 11 0 9 0;
#X connect 11 0 8 0;
#X connect 11 0 7 0;
#X connect 11 0 6 0;
#X connect 11 0 14 0;
#X connect 12 0 13 0;
#X connect 12 1 13 1;
#X connect 12 2 13 2;
#X connect 13 0 5 0;
#X connect 14 0 13 3;
#X restore 1678 -244 pd map;
#N canvas 740 247 450 296 map 0;
#X obj 75 114 inlet;
#X obj 226 114 inlet;
#X obj 150 114 inlet;
#X obj 302 114 inlet;
#X obj 378 114 inlet;
#X obj 75 286 outlet;
#X obj 150 140 float \$1;
#X obj 226 140 float \$2;
#X obj 302 140 float \$3;
#X obj 378 140 float \$4;
#X text 306 275 by Adrian Rennertz;
#X obj 371 87 loadbang;
#X obj 75 177 expr if($f2 == $f3 \, -1 \, (((($f1-$f2) / ($f3-$f2))
* ($f5-$f4)) + $f4)) \; $f4 \; $f5 \;;
#X obj 75 265 limit;
#X msg 371 240 0;
#X text 70 18 inlets are (from left to right) input_value - input_range_low
- input_range_high - output_range_low - output_range_high. low and
high can be switched to invert the value. values that exceed the output
range will output the treshold.;
#X connect 0 0 12 0;
#X connect 1 0 7 0;
#X connect 2 0 6 0;
#X connect 3 0 8 0;
#X connect 4 0 9 0;
#X connect 6 0 12 1;
#X connect 7 0 12 2;
#X connect 8 0 12 3;
#X connect 9 0 12 4;
#X connect 11 0 9 0;
#X connect 11 0 8 0;
#X connect 11 0 7 0;
#X connect 11 0 6 0;
#X connect 11 0 14 0;
#X connect 12 0 13 0;
#X connect 12 1 13 1;
#X connect 12 2 13 2;
#X connect 13 0 5 0;
#X connect 14 0 13 3;
#X restore 1671 -63 pd map;
#X msg 1731 -97 0;
#X msg 1759 -99 1;
#X obj 1674 217 hsl 128 15 0 1 0 0 empty empty empty -2 -8 0 10 -262144
-1 -1 0 1;
#N canvas 740 247 450 296 map 0;
#X obj 75 114 inlet;
#X obj 226 114 inlet;
#X obj 150 114 inlet;
#X obj 302 114 inlet;
#X obj 378 114 inlet;
#X obj 75 286 outlet;
#X obj 150 140 float \$1;
#X obj 226 140 float \$2;
#X obj 302 140 float \$3;
#X obj 378 140 float \$4;
#X text 306 275 by Adrian Rennertz;
#X obj 371 87 loadbang;
#X obj 75 177 expr if($f2 == $f3 \, -1 \, (((($f1-$f2) / ($f3-$f2))
* ($f5-$f4)) + $f4)) \; $f4 \; $f5 \;;
#X obj 75 265 limit;
#X msg 371 240 0;
#X text 70 18 inlets are (from left to right) input_value - input_range_low
- input_range_high - output_range_low - output_range_high. low and
high can be switched to invert the value. values that exceed the output
range will output the treshold.;
#X connect 0 0 12 0;
#X connect 1 0 7 0;
#X connect 2 0 6 0;
#X connect 3 0 8 0;
#X connect 4 0 9 0;
#X connect 6 0 12 1;
#X connect 7 0 12 2;
#X connect 8 0 12 3;
#X connect 9 0 12 4;
#X connect 11 0 9 0;
#X connect 11 0 8 0;
#X connect 11 0 7 0;
#X connect 11 0 6 0;
#X connect 11 0 14 0;
#X connect 12 0 13 0;
#X connect 12 1 13 1;
#X connect 12 2 13 2;
#X connect 13 0 5 0;
#X connect 14 0 13 3;
#X restore 1671 188 pd map;
#X msg 1771 155 1;
#X floatatom 1395 -62 5 0 0 0 - - -;
#X floatatom 1397 -243 5 0 0 0 - - -;
#X floatatom 1397 178 5 0 0 0 - - -;
#X floatatom 1633 188 5 0 0 0 - - -;
#X floatatom 1628 -76 5 0 0 0 - - -;
#X floatatom 1633 -247 5 0 0 0 - - -;
#X text 1664 -421 LeftHandRelative;
#X obj 1518 115 loadbang;
#X obj 1762 121 loadbang;
#X obj 1528 -128 loadbang;
#X obj 1741 -129 loadbang;
#X obj 1520 -306 loadbang;
#X obj 1733 -307 loadbang;
#X text 1429 -440 in;
#X text 1203 -476 RHX master crossfader LHX (layer opacity) RHY change
layer set A LHY change layer set B RHZ trigger pulse clips LHZ trigger
pulse clips;
#X text 1020 -246 ref. layer 1/6 pulse clip layer 2/7 pulse clip layer
3/8 layer 4/9 layer 5/10 syphon input;
#X obj 1432 -397 r relativeRightHand2;
#X obj 1369 -175 s RHXOUT2;
#X obj 1620 -157 s LHXOUT2;
#X obj 1671 100 s LHYOUT2;
#X obj 1437 103 s RHYOUT2;
#X obj 1390 310 s RHZOUT2;
#X obj 1671 297 s LHZOUT2;
#X obj 1432 -336 s RHX2;
#X obj 1471 -335 s RHY2;
#X obj 1509 -335 s RHZ2;
#X obj 1666 -332 s LHX2;
#X obj 1706 -331 s LHY2;
#X obj 1754 -331 s LHZ2;
#X obj 1398 -276 r RHX2;
#X obj 1633 -279 r LHX2;
#X obj 1395 -95 r RHY2;
#X obj 1630 -97 r LHY2;
#X obj 1397 142 r RHZ2;
#X obj 1624 157 r LHZ2;
#X obj 1666 -394 r relativeLeftHand2;
#X floatatom 907 -135 5 0 0 0 - - -;
#X obj 975 -102 max;
#X floatatom 902 -73 5 0 0 0 - - -;
#X floatatom 972 -71 5 0 0 0 - - -;
#X obj 907 -103 min;
#X obj 965 -173 bng 15 250 50 0 empty empty empty 17 7 0 10 -262144
-1 -1;
#X msg 968 -147 0;
#X floatatom 1041 30 5 0 0 0 - - -;
#X obj 1109 63 max;
#X floatatom 1036 92 5 0 0 0 - - -;
#X floatatom 1106 94 5 0 0 0 - - -;
#X obj 1041 62 min;
#X obj 1099 -8 bng 15 250 50 0 empty empty empty 17 7 0 10 -262144
-1 -1;
#X msg 1102 18 0;
#X floatatom 1165 159 5 0 0 0 - - -;
#X obj 1233 192 max;
#X floatatom 1160 221 5 0 0 0 - - -;
#X floatatom 1230 223 5 0 0 0 - - -;
#X obj 1165 191 min;
#X obj 1223 121 bng 15 250 50 0 empty empty empty 17 7 0 10 -262144
-1 -1;
#X msg 1226 147 0;
#X floatatom 1961 -204 5 0 0 0 - - -;
#X obj 2029 -171 max;
#X floatatom 1956 -142 5 0 0 0 - - -;
#X floatatom 2026 -140 5 0 0 0 - - -;
#X obj 1961 -172 min;
#X obj 2019 -242 bng 15 250 50 0 empty empty empty 17 7 0 10 -262144
-1 -1;
#X msg 2022 -216 0;
#X floatatom 2095 -39 5 0 0 0 - - -;
#X obj 2163 -6 max;
#X floatatom 2090 23 5 0 0 0 - - -;
#X floatatom 2160 25 5 0 0 0 - - -;
#X obj 2095 -7 min;
#X obj 2153 -77 bng 15 250 50 0 empty empty empty 17 7 0 10 -262144
-1 -1;
#X msg 2156 -51 0;
#X floatatom 2219 90 5 0 0 0 - - -;
#X obj 2287 123 max;
#X floatatom 2214 152 5 0 0 0 - - -;
#X floatatom 2284 154 5 0 0 0 - - -;
#X obj 2219 122 min;
#X obj 2277 52 bng 15 250 50 0 empty empty empty 17 7 0 10 -262144
-1 -1;
#X msg 2280 78 0;
#X msg 1712 -280 450;
#X obj 1783 -35 vsl 15 128 0 1 0 0 empty empty empty 0 -9 0 10 -262144
-1 -1 0 1;
#X obj 1519 -51 vsl 15 128 0 1 0 0 empty empty empty 0 -9 0 10 -262144
-1 -1 0 1;
#X msg 1742 154 0;
#X msg 1438 -95 -450;
#X msg 1474 -95 450;
#X msg 1669 -98 -450;
#X msg 1703 -97 450;
#X msg 1744 -280 0;
#X msg 1776 -280 1;
#X msg 1439 143 -500;
#X msg 1478 144 -250;
#X msg 1671 155 -500;
#X msg 1706 154 -250;
#X floatatom 1452 238 5 0 0 0 - - -;
#X msg 1508 144 1;
#X msg 1540 144 0;
#X obj 1496 307 hsl 128 15 1 0 0 0 empty empty empty -2 -8 0 10 -262144
-1 -1 0 1;
#N canvas 740 247 450 296 map 0;
#X obj 75 114 inlet;
#X obj 226 114 inlet;
#X obj 150 114 inlet;
#X obj 302 114 inlet;
#X obj 378 114 inlet;
#X obj 75 286 outlet;
#X obj 150 140 float \$1;
#X obj 226 140 float \$2;
#X obj 302 140 float \$3;
#X obj 378 140 float \$4;
#X text 306 275 by Adrian Rennertz;
#X obj 371 87 loadbang;
#X obj 75 177 expr if($f2 == $f3 \, -1 \, (((($f1-$f2) / ($f3-$f2))
* ($f5-$f4)) + $f4)) \; $f4 \; $f5 \;;
#X obj 75 265 limit;
#X msg 371 240 0;
#X text 70 18 inlets are (from left to right) input_value - input_range_low
- input_range_high - output_range_low - output_range_high. low and
high can be switched to invert the value. values that exceed the output
range will output the treshold.;
#X connect 0 0 12 0;
#X connect 1 0 7 0;
#X connect 2 0 6 0;
#X connect 3 0 8 0;
#X connect 4 0 9 0;
#X connect 6 0 12 1;
#X connect 7 0 12 2;
#X connect 8 0 12 3;
#X connect 9 0 12 4;
#X connect 11 0 9 0;
#X connect 11 0 8 0;
#X connect 11 0 7 0;
#X connect 11 0 6 0;
#X connect 11 0 14 0;
#X connect 12 0 13 0;
#X connect 12 1 13 1;
#X connect 12 2 13 2;
#X connect 13 0 5 0;
#X connect 14 0 13 3;
#X restore 1494 274 pd map;
#X msg 1570 240 1;
#X msg 1501 239 1;
#X msg 1540 240 0;
#X msg 1602 242 0.4;
#X floatatom 1202 -134 5 0 0 0 - - -;
#X obj 1246 -65 hsl 128 15 1 0 0 0 empty empty empty -2 -8 0 10 -262144
-1 -1 0 1;
#N canvas 740 247 450 296 map 0;
#X obj 75 114 inlet;
#X obj 226 114 inlet;
#X obj 150 114 inlet;
#X obj 302 114 inlet;
#X obj 378 114 inlet;
#X obj 75 286 outlet;
#X obj 150 140 float \$1;
#X obj 226 140 float \$2;
#X obj 302 140 float \$3;
#X obj 378 140 float \$4;
#X text 306 275 by Adrian Rennertz;
#X obj 371 87 loadbang;
#X obj 75 177 expr if($f2 == $f3 \, -1 \, (((($f1-$f2) / ($f3-$f2))
* ($f5-$f4)) + $f4)) \; $f4 \; $f5 \;;
#X obj 75 265 limit;
#X msg 371 240 0;
#X text 70 18 inlets are (from left to right) input_value - input_range_low
- input_range_high - output_range_low - output_range_high. low and
high can be switched to invert the value. values that exceed the output
range will output the treshold.;
#X connect 0 0 12 0;
#X connect 1 0 7 0;
#X connect 2 0 6 0;
#X connect 3 0 8 0;
#X connect 4 0 9 0;
#X connect 6 0 12 1;
#X connect 7 0 12 2;
#X connect 8 0 12 3;
#X connect 9 0 12 4;
#X connect 11 0 9 0;
#X connect 11 0 8 0;
#X connect 11 0 7 0;
#X connect 11 0 6 0;
#X connect 11 0 14 0;
#X connect 12 0 13 0;
#X connect 12 1 13 1;
#X connect 12 2 13 2;
#X connect 13 0 5 0;
#X connect 14 0 13 3;
#X restore 1244 -98 pd map;
#X msg 1320 -132 1;
#X msg 1251 -133 1;
#X msg 1290 -132 0;
#X msg 1352 -130 0.4;
#X msg 1476 -278 450;
#X msg 1440 -278 100;
#X msg 1676 -279 -450;
#N canvas 740 247 450 296 map 0;
#X obj 75 114 inlet;
#X obj 226 114 inlet;
#X obj 150 114 inlet;
#X obj 302 114 inlet;
#X obj 378 114 inlet;
#X obj 75 286 outlet;
#X obj 150 140 float \$1;
#X obj 226 140 float \$2;
#X obj 302 140 float \$3;
#X obj 378 140 float \$4;
#X text 306 275 by Adrian Rennertz;
#X obj 371 87 loadbang;
#X obj 75 177 expr if($f2 == $f3 \, -1 \, (((($f1-$f2) / ($f3-$f2))
* ($f5-$f4)) + $f4)) \; $f4 \; $f5 \;;
#X obj 75 265 limit;
#X msg 371 240 0;
#X text 70 18 inlets are (from left to right) input_value - input_range_low
- input_range_high - output_range_low - output_range_high. low and
high can be switched to invert the value. values that exceed the output
range will output the treshold.;
#X connect 0 0 12 0;
#X connect 1 0 7 0;
#X connect 2 0 6 0;
#X connect 3 0 8 0;
#X connect 4 0 9 0;
#X connect 6 0 12 1;
#X connect 7 0 12 2;
#X connect 8 0 12 3;
#X connect 9 0 12 4;
#X connect 11 0 9 0;
#X connect 11 0 8 0;
#X connect 11 0 7 0;
#X connect 11 0 6 0;
#X connect 11 0 14 0;
#X connect 12 0 13 0;
#X connect 12 1 13 1;
#X connect 12 2 13 2;
#X connect 13 0 5 0;
#X connect 14 0 13 3;
#X restore -338 681 pd map;
#X msg -335 643 0;
#X msg -298 644 1;
#X floatatom -339 726 5 0 0 0 - - -;
#X obj -341 757 i;
#X floatatom -344 785 5 0 0 0 - - -;
#X obj -390 843 onebang;
#X obj -337 842 onebang;
#X obj -131 822 bng 15 250 50 0 empty empty empty 17 7 0 10 -262144
-1 -1;
#X obj -111 822 bng 15 250 50 0 empty empty empty 17 7 0 10 -262144
-1 -1;
#X msg -400 907 /md8key/ctrl_master_layerSetGroupA/1 \$1;
#X obj -400 933 s out;
#X floatatom -444 897 5 0 0 0 - - -;
#X text -371 599 change layer set group A;
#N canvas 740 247 450 296 map 0;
#X obj 75 114 inlet;
#X obj 226 114 inlet;
#X obj 150 114 inlet;
#X obj 302 114 inlet;
#X obj 378 114 inlet;
#X obj 75 286 outlet;
#X obj 150 140 float \$1;
#X obj 226 140 float \$2;
#X obj 302 140 float \$3;
#X obj 378 140 float \$4;
#X text 306 275 by Adrian Rennertz;
#X obj 371 87 loadbang;
#X obj 75 177 expr if($f2 == $f3 \, -1 \, (((($f1-$f2) / ($f3-$f2))
* ($f5-$f4)) + $f4)) \; $f4 \; $f5 \;;
#X obj 75 265 limit;
#X msg 371 240 0;
#X text 70 18 inlets are (from left to right) input_value - input_range_low
- input_range_high - output_range_low - output_range_high. low and
high can be switched to invert the value. values that exceed the output
range will output the treshold.;
#X connect 0 0 12 0;
#X connect 1 0 7 0;
#X connect 2 0 6 0;
#X connect 3 0 8 0;
#X connect 4 0 9 0;
#X connect 6 0 12 1;
#X connect 7 0 12 2;
#X connect 8 0 12 3;
#X connect 9 0 12 4;
#X connect 11 0 9 0;
#X connect 11 0 8 0;
#X connect 11 0 7 0;
#X connect 11 0 6 0;
#X connect 11 0 14 0;
#X connect 12 0 13 0;
#X connect 12 1 13 1;
#X connect 12 2 13 2;
#X connect 13 0 5 0;
#X connect 14 0 13 3;
#X restore 1139 709 pd map;
#X msg 1142 671 0;
#X msg 1179 672 1;
#X floatatom 1138 754 5 0 0 0 - - -;
#X obj 1136 785 i;
#X floatatom 1133 813 5 0 0 0 - - -;
#X obj 1071 851 select 0 1 2 3 4 5 6 7;
#X obj 1097 872 onebang;
#X obj 1150 871 onebang;
#X obj 1316 848 bng 15 250 50 0 empty empty empty 17 7 0 10 -262144
-1 -1;
#X obj 1336 848 bng 15 250 50 0 empty empty empty 17 7 0 10 -262144
-1 -1;
#X msg 1101 892 1;
#X obj 1070 944 s out;
#X floatatom 1026 908 5 0 0 0 - - -;
#X text 1106 627 change layer set group B;
#X msg 1070 918 /md8key/ctrl_master_layerSetGroupB/1 \$1;
#X obj 1235 650 loadbang;
#X obj -254 619 loadbang;
#X obj -406 823 select 0 1 2 3 4 5;
#X text -177 801 1 2 3 4 5;
#X text 1270 827 1 2 3 4 5;
#X obj -178 778 loadbang;
#X obj 1260 795 loadbang;
#X msg -266 644 2;
#X msg 1211 672 2;
#X msg -235 648 3;
#X msg 1242 676 3;
#X obj -369 622 r RHYOUT2;
#X obj 1108 650 r LHYOUT2;
#X obj -550 688 r bangState2;
#X obj 990 777 r bangState2;
#X msg -339 880 2;
#X msg -309 880 3;
#X msg 1131 891 2;
#X msg 1161 891 3;
#X floatatom 44 622 5 0 0 0 - - -;
#X msg 51 646 send /md8key/ctrl_master_crossfader_slider/1 \$1;
#X obj 51 672 s out;
#X obj 53 590 r RHXOUT2;
#X obj 1535 655 s out;
#X floatatom 1492 647 5 0 0 0 - - -;
#X obj 1535 613 r LHXOUT2;
#X obj 1528 845 s out;
#X floatatom 1485 837 5 0 0 0 - - -;
#X obj 1528 803 r LHXOUT2;
#X msg 1535 634 /md8key/ctrl_layer_scale_uniform/5 \$1;
#X msg 1528 824 /md8key/ctrl_layer_scale_uniform/8 \$1;
#X floatatom 1963 1145 5 0 0 0 - - -;
#X floatatom 1967 1222 5 0 0 0 - - -;
#X obj 2009 1170 s out;
#X obj 2010 1248 s out;
#X msg 2008 1145 /md8key/ctrl_layer_movie_speedFactor/8 \$1;
#X msg 2010 1223 /md8key/ctrl_layer_alpha/8 \$1;
#X floatatom 1957 642 5 0 0 0 - - -;
#X floatatom 1950 713 5 0 0 0 - - -;
#X obj 2003 667 s out;
#X obj 2003 749 s out;
#X msg 2002 642 /md8key/ctrl_layer_movie_speedFactor/2 \$1;
#X msg 2003 721 /md8key/ctrl_layer_alpha/2 \$1;
#X text 1973 1118 8;
#X text 1967 615 2;
#X floatatom 1963 937 5 0 0 0 - - -;
#X obj 2009 962 s out;
#X msg 2008 937 /md8key/ctrl_layer_scale_uniform/5 \$1;
#X floatatom 1961 1026 5 0 0 0 - - -;
#X obj 2007 1051 s out;
#X floatatom 1963 1427 5 0 0 0 - - -;
#X obj 2009 1452 s out;
#X msg 2008 1427 /md8key/ctrl_layer_scale_uniform/10 \$1;
#X msg 2006 1026 /md8key/ctrl_layer_scale_uniform/8 \$1;
#X text 1973 910 5;
#X text 1971 999 8;
#X text 1961 1394 10;
#X floatatom 1957 814 5 0 0 0 - - -;
#X obj 2003 839 s out;
#X obj 2002 785 r LHZOUT2;
#X msg 2002 814 /md8key/ctrl_layer_scale_uniform/2 \$1;
#X text 1950 765 size clips Z;
#X text 1967 787 2;
#X floatatom 1489 719 5 0 0 0 - - -;
#X obj 1535 744 s out;
#X obj 1534 690 r LHXOUT2;
#X floatatom 1479 914 5 0 0 0 - - -;
#X obj 1525 939 s out;
#X obj 1524 885 r LHXOUT2;
#X floatatom 1474 1036 5 0 0 0 - - -;
#X obj 1520 1061 s out;
#X obj 1519 1007 r LHXOUT2;
#X msg 1534 719 /md8key/ctrl_layer_rotation_z/5 \$1;
#X msg 1524 914 /md8key/ctrl_layer_rotation_y/8 \$1;
#X msg 1519 1036 /md8key/ctrl_layer_rotation_x/10 \$1;
#X text 1499 692 5;
#X text 1489 887 8;
#X text 1484 1009 10;
#X text 546 569 RHZ;
#X text -346 546 RHY;
#X text 70 540 RHX;
#X text 1131 579 LHY;
#X text 1534 576 LHX;
#X text 1937 570 LHZ;
#X text 1939 591 pulse clips;
#X obj 2007 1109 r LHZOUT2;
#X obj 2009 1194 r LHZOUT2;
#X obj 2009 910 r LHZOUT2;
#X obj 2006 997 r LHZOUT2;
#X obj 2013 1392 r LHZOUT2;
#X floatatom 1967 1321 5 0 0 0 - - -;
#X obj 2013 1346 s out;
#X msg 2012 1321 /md8key/ctrl_layer_scale_uniform/8 \$1;
#X text 1977 1294 8;
#X obj 2012 1292 r LHZOUT2;
#X text 1978 1193 8;
#X text 1970 691 2;
#X obj 2004 612 r LHZOUT2;
#X obj 2003 695 r LHZOUT2;
#X text 1496 611 5;
#X text 1500 777 8;
#X text 1266 810 comment;
#X text 1343 494 modul8 commands;
#X connect 0 0 6 0;
#X connect 2 0 0 0;
#X connect 2 1 17 0;
#X connect 2 2 19 0;
#X connect 3 0 2 0;
#X connect 4 0 5 0;
#X connect 4 1 18 0;
#X connect 4 2 20 0;
#X connect 5 0 6 1;
#X connect 6 0 7 0;
#X connect 7 0 14 0;
#X connect 8 0 12 0;
#X connect 9 0 8 0;
#X connect 9 1 23 0;
#X connect 9 2 24 0;
#X connect 10 0 11 0;
#X connect 10 1 27 0;
#X connect 10 2 28 0;
#X connect 11 0 12 1;
#X connect 12 0 13 0;
#X connect 13 0 31 0;
#X connect 14 0 34 0;
#X connect 15 0 16 0;
#X connect 16 0 14 1;
#X connect 17 0 15 0;
#X connect 18 0 15 1;
#X connect 19 0 21 0;
#X connect 20 0 21 1;
#X connect 21 0 22 0;
#X connect 22 0 14 2;
#X connect 23 0 25 0;
#X connect 24 0 29 0;
#X connect 25 0 26 0;
#X connect 26 0 31 1;
#X connect 27 0 25 1;
#X connect 28 0 29 1;
#X connect 29 0 30 0;
#X connect 30 0 31 2;
#X connect 31 0 35 0;
#X connect 33 0 3 0;
#X connect 33 0 36 0;
#X connect 33 0 37 0;
#X connect 33 0 38 0;
#X connect 36 0 9 0;
#X connect 37 0 4 0;
#X connect 38 0 10 0;
#X connect 40 0 82 0;
#X connect 40 1 83 0;
#X connect 40 2 84 0;
#X connect 41 0 76 0;
#X connect 42 0 41 0;
#X connect 43 0 42 3;
#X connect 44 0 42 4;
#X connect 45 0 139 0;
#X connect 46 0 45 3;
#X connect 47 0 45 4;
#X connect 48 0 151 0;
#X connect 49 0 48 0;
#X connect 50 0 85 0;
#X connect 50 1 86 0;
#X connect 50 2 87 0;
#X connect 51 0 77 0;
#X connect 52 0 51 0;
#X connect 53 0 138 0;
#X connect 54 0 53 3;
#X connect 55 0 53 4;
#X connect 56 0 81 0;
#X connect 57 0 56 0;
#X connect 58 0 57 4;
#X connect 59 0 102 0;
#X connect 60 0 95 0;
#X connect 61 0 109 0;
#X connect 62 0 130 0;
#X connect 63 0 123 0;
#X connect 64 0 116 0;
#X connect 66 0 152 0;
#X connect 66 0 153 0;
#X connect 66 0 148 0;
#X connect 66 0 147 0;
#X connect 67 0 149 0;
#X connect 67 0 150 0;
#X connect 67 0 140 0;
#X connect 67 0 58 0;
#X connect 68 0 46 0;
#X connect 68 0 47 0;
#X connect 68 0 142 0;
#X connect 68 0 141 0;
#X connect 69 0 55 0;
#X connect 69 0 54 0;
#X connect 69 0 144 0;
#X connect 69 0 143 0;
#X connect 70 0 44 0;
#X connect 70 0 43 0;
#X connect 70 0 167 0;
#X connect 70 0 168 0;
#X connect 71 0 146 0;
#X connect 71 0 145 0;
#X connect 71 0 137 0;
#X connect 71 0 169 0;
#X connect 75 0 40 0;
#X connect 88 0 42 0;
#X connect 88 0 60 0;
#X connect 89 0 52 0;
#X connect 89 0 64 0;
#X connect 90 0 45 0;
#X connect 90 0 59 0;
#X connect 91 0 53 0;
#X connect 91 0 63 0;
#X connect 92 0 49 0;
#X connect 92 0 61 0;
#X connect 93 0 57 0;
#X connect 93 0 62 0;
#X connect 94 0 50 0;
#X connect 95 0 96 0;
#X connect 95 0 99 0;
#X connect 96 0 98 0;
#X connect 97 0 99 1;
#X connect 98 0 96 1;
#X connect 99 0 97 0;
#X connect 100 0 101 0;
#X connect 101 0 99 1;
#X connect 101 0 96 1;
#X connect 102 0 103 0;
#X connect 102 0 106 0;
#X connect 103 0 105 0;
#X connect 104 0 106 1;
#X connect 105 0 103 1;
#X connect 106 0 104 0;
#X connect 107 0 108 0;
#X connect 108 0 106 1;
#X connect 108 0 103 1;
#X connect 109 0 110 0;
#X connect 109 0 113 0;
#X connect 110 0 112 0;
#X connect 111 0 113 1;
#X connect 112 0 110 1;
#X connect 113 0 111 0;
#X connect 114 0 115 0;
#X connect 115 0 113 1;
#X connect 115 0 110 1;
#X connect 116 0 117 0;
#X connect 116 0 120 0;
#X connect 117 0 119 0;
#X connect 118 0 120 1;
#X connect 119 0 117 1;
#X connect 120 0 118 0;
#X connect 121 0 122 0;
#X connect 122 0 120 1;
#X connect 122 0 117 1;
#X connect 123 0 124 0;
#X connect 123 0 127 0;
#X connect 124 0 126 0;
#X connect 125 0 127 1;
#X connect 126 0 124 1;
#X connect 127 0 125 0;
#X connect 128 0 129 0;
#X connect 129 0 127 1;
#X connect 129 0 124 1;
#X connect 130 0 131 0;
#X connect 130 0 134 0;
#X connect 131 0 133 0;
#X connect 132 0 134 1;
#X connect 133 0 131 1;
#X connect 134 0 132 0;
#X connect 135 0 136 0;
#X connect 136 0 134 1;
#X connect 136 0 131 1;
#X connect 137 0 52 2;
#X connect 138 0 78 0;
#X connect 139 0 79 0;
#X connect 140 0 57 3;
#X connect 141 0 45 1;
#X connect 142 0 45 2;
#X connect 143 0 53 1;
#X connect 144 0 53 2;
#X connect 145 0 52 3;
#X connect 146 0 52 4;
#X connect 147 0 49 1;
#X connect 148 0 49 2;
#X connect 149 0 57 1;
#X connect 150 0 57 2;
#X connect 151 0 155 0;
#X connect 152 0 49 3;
#X connect 153 0 49 4;
#X connect 154 0 80 0;
#X connect 155 0 154 0;
#X connect 156 0 155 3;
#X connect 157 0 155 1;
#X connect 158 0 155 2;
#X connect 159 0 155 4;
#X connect 160 0 162 0;
#X connect 162 0 161 0;
#X connect 163 0 162 3;
#X connect 164 0 162 1;
#X connect 165 0 162 2;
#X connect 166 0 162 4;
#X connect 167 0 42 2;
#X connect 168 0 42 1;
#X connect 169 0 52 1;
#X connect 170 0 173 0;
#X connect 171 0 170 1;
#X connect 172 0 170 2;
#X connect 173 0 174 0;
#X connect 174 0 175 0;
#X connect 175 0 202 0;
#X connect 176 0 178 0;
#X connect 176 0 215 0;
#X connect 177 0 179 0;
#X connect 177 0 216 0;
#X connect 178 0 177 1;
#X connect 179 0 176 1;
#X connect 180 0 181 0;
#X connect 184 0 187 0;
#X connect 185 0 184 1;
#X connect 186 0 184 2;
#X connect 187 0 188 0;
#X connect 188 0 189 0;
#X connect 189 0 190 0;
#X connect 190 2 191 0;
#X connect 190 3 192 0;
#X connect 191 0 193 0;
#X connect 191 0 217 0;
#X connect 192 0 194 0;
#X connect 192 0 218 0;
#X connect 193 0 192 1;
#X connect 194 0 191 1;
#X connect 195 0 199 0;
#X connect 195 0 197 0;
#X connect 199 0 196 0;
#X connect 200 0 210 0;
#X connect 200 0 208 0;
#X connect 200 0 186 0;
#X connect 200 0 185 0;
#X connect 201 0 171 0;
#X connect 201 0 172 0;
#X connect 201 0 207 0;
#X connect 201 0 209 0;
#X connect 202 2 176 0;
#X connect 202 3 177 0;
#X connect 205 0 178 0;
#X connect 205 0 179 0;
#X connect 206 0 193 0;
#X connect 206 0 194 0;
#X connect 207 0 170 3;
#X connect 208 0 184 3;
#X connect 209 0 170 4;
#X connect 210 0 184 4;
#X connect 211 0 170 0;
#X connect 212 0 184 0;
#X connect 213 0 215 0;
#X connect 214 0 217 0;
#X connect 215 0 182 0;
#X connect 215 0 180 0;
#X connect 216 0 182 0;
#X connect 216 0 180 0;
#X connect 217 0 197 0;
#X connect 217 0 199 0;
#X connect 218 0 197 0;
#X connect 218 0 199 0;
#X connect 219 0 220 0;
#X connect 220 0 221 0;
#X connect 222 0 220 0;
#X connect 225 0 229 0;
#X connect 228 0 230 0;
#X connect 229 0 223 0;
#X connect 229 0 224 0;
#X connect 230 0 226 0;
#X connect 230 0 227 0;
#X connect 231 0 235 0;
#X connect 232 0 236 0;
#X connect 235 0 233 0;
#X connect 236 0 234 0;
#X connect 237 0 241 0;
#X connect 238 0 242 0;
#X connect 241 0 239 0;
#X connect 242 0 240 0;
#X connect 245 0 247 0;
#X connect 247 0 246 0;
#X connect 248 0 253 0;
#X connect 250 0 252 0;
#X connect 252 0 251 0;
#X connect 253 0 249 0;
#X connect 257 0 260 0;
#X connect 259 0 260 0;
#X connect 260 0 258 0;
#X connect 263 0 272 0;
#X connect 265 0 272 0;
#X connect 266 0 273 0;
#X connect 268 0 273 0;
#X connect 269 0 274 0;
#X connect 271 0 274 0;
#X connect 272 0 264 0;
#X connect 273 0 267 0;
#X connect 274 0 270 0;
#X connect 285 0 235 0;
#X connect 286 0 236 0;
#X connect 287 0 247 0;
#X connect 288 0 253 0;
#X connect 289 0 252 0;
#X connect 290 0 292 0;
#X connect 292 0 291 0;
#X connect 294 0 292 0;
#X connect 297 0 241 0;
#X connect 298 0 242 0;
#X restore 230 -829 pd position2;
#N canvas 9 22 1431 852 position1 0;
#N canvas 740 247 450 296 map 0;
#X obj 75 114 inlet;
#X obj 226 114 inlet;
#X obj 150 114 inlet;
#X obj 302 114 inlet;
#X obj 378 114 inlet;
#X obj 75 286 outlet;
#X obj 150 140 float \$1;
#X obj 226 140 float \$2;
#X obj 302 140 float \$3;
#X obj 378 140 float \$4;
#X text 306 275 by Adrian Rennertz;
#X obj 371 87 loadbang;
#X obj 75 177 expr if($f2 == $f3 \, -1 \, (((($f1-$f2) / ($f3-$f2))
* ($f5-$f4)) + $f4)) \; $f4 \; $f5 \;;
#X obj 75 265 limit;
#X msg 371 240 0;
#X text 70 18 inlets are (from left to right) input_value - input_range_low
- input_range_high - output_range_low - output_range_high. low and
high can be switched to invert the value. values that exceed the output
range will output the treshold.;
#X connect 0 0 12 0;
#X connect 1 0 7 0;
#X connect 2 0 6 0;
#X connect 3 0 8 0;
#X connect 4 0 9 0;
#X connect 6 0 12 1;
#X connect 7 0 12 2;
#X connect 8 0 12 3;
#X connect 9 0 12 4;
#X connect 11 0 9 0;
#X connect 11 0 8 0;
#X connect 11 0 7 0;
#X connect 11 0 6 0;
#X connect 11 0 14 0;
#X connect 12 0 13 0;
#X connect 12 1 13 1;
#X connect 12 2 13 2;
#X connect 13 0 5 0;
#X connect 14 0 13 3;
#X restore -448 607 pd map;
#X msg -376 570 0;
#X floatatom -469 643 5 0 0 0 - - -;
#X obj -471 674 i;
#X floatatom -474 702 5 0 0 0 - - -;
#X obj -446 793 bng 15 250 50 0 empty empty empty 17 7 0 10 -262144
-1 -1;
#X obj -426 793 bng 15 250 50 0 empty empty empty 17 7 0 10 -262144
-1 -1;
#X obj -517 769 onebang;
#X obj -464 769 onebang;
#X msg -516 790 0;
#X msg -486 790 1;
#X obj -517 842 s out;
#X floatatom -561 806 5 0 0 0 - - -;
#X text -481 525 change layer set group A;
#N canvas 740 247 450 296 map 0;
#X obj 75 114 inlet;
#X obj 226 114 inlet;
#X obj 150 114 inlet;
#X obj 302 114 inlet;
#X obj 378 114 inlet;
#X obj 75 286 outlet;
#X obj 150 140 float \$1;
#X obj 226 140 float \$2;
#X obj 302 140 float \$3;
#X obj 378 140 float \$4;
#X text 306 275 by Adrian Rennertz;
#X obj 371 87 loadbang;
#X obj 75 177 expr if($f2 == $f3 \, -1 \, (((($f1-$f2) / ($f3-$f2))
* ($f5-$f4)) + $f4)) \; $f4 \; $f5 \;;
#X obj 75 265 limit;
#X msg 371 240 0;
#X text 70 18 inlets are (from left to right) input_value - input_range_low
- input_range_high - output_range_low - output_range_high. low and
high can be switched to invert the value. values that exceed the output
range will output the treshold.;
#X connect 0 0 12 0;
#X connect 1 0 7 0;
#X connect 2 0 6 0;
#X connect 3 0 8 0;
#X connect 4 0 9 0;
#X connect 6 0 12 1;
#X connect 7 0 12 2;
#X connect 8 0 12 3;
#X connect 9 0 12 4;
#X connect 11 0 9 0;
#X connect 11 0 8 0;
#X connect 11 0 7 0;
#X connect 11 0 6 0;
#X connect 11 0 14 0;
#X connect 12 0 13 0;
#X connect 12 1 13 1;
#X connect 12 2 13 2;
#X connect 13 0 5 0;
#X connect 14 0 13 3;
#X restore 1036 598 pd map;
#X msg 1108 561 0;
#X floatatom 1035 643 5 0 0 0 - - -;
#X obj 1033 674 i;
#X floatatom 1030 702 5 0 0 0 - - -;
#X obj 1167 737 bng 15 250 50 0 empty empty empty 17 7 0 10 -262144
-1 -1;
#X obj 1187 737 bng 15 250 50 0 empty empty empty 17 7 0 10 -262144
-1 -1;
#X obj 967 760 onebang;
#X obj 1020 759 onebang;
#X msg 968 781 0;
#X msg 998 781 1;
#X obj 967 833 s out;
#X floatatom 923 797 5 0 0 0 - - -;
#X text 1003 516 change layer set group B;
#X msg 967 807 /md8key/ctrl_master_layerSetGroupB/1 \$1;
#X text 1321 309 modul8 commands;
#X floatatom -66 550 5 0 0 0 - - -;
#X msg -59 574 send /md8key/ctrl_master_crossfader_slider/1 \$1;
#X text -98 515 master crossfade;
#X obj 1132 539 loadbang;
#X obj -364 545 loadbang;
#X obj -59 600 s out;
#X obj -724 676 loadbang;
#X obj 885 665 loadbang;
#X obj -493 728 select 0 1;
#X msg -345 574 1;
#X msg 1139 565 1;
#X text 1167 716 1 2;
#X obj 968 727 select 0 1;
#X text 1421 -431 RightHandRelative;
#X obj 1422 -374 unpack f f f;
#X obj 1419 -225 hsl 128 15 1 0 0 0 empty empty empty -2 -8 0 10 -262144
-1 -1 0 1;
#N canvas 740 247 450 296 map 0;
#X obj 75 114 inlet;
#X obj 226 114 inlet;
#X obj 150 114 inlet;
#X obj 302 114 inlet;
#X obj 378 114 inlet;
#X obj 75 286 outlet;
#X obj 150 140 float \$1;
#X obj 226 140 float \$2;
#X obj 302 140 float \$3;
#X obj 378 140 float \$4;
#X text 306 275 by Adrian Rennertz;
#X obj 371 87 loadbang;
#X obj 75 177 expr if($f2 == $f3 \, -1 \, (((($f1-$f2) / ($f3-$f2))
* ($f5-$f4)) + $f4)) \; $f4 \; $f5 \;;
#X obj 75 265 limit;
#X msg 371 240 0;
#X text 70 18 inlets are (from left to right) input_value - input_range_low
- input_range_high - output_range_low - output_range_high. low and
high can be switched to invert the value. values that exceed the output
range will output the treshold.;
#X connect 0 0 12 0;
#X connect 1 0 7 0;
#X connect 2 0 6 0;
#X connect 3 0 8 0;
#X connect 4 0 9 0;
#X connect 6 0 12 1;
#X connect 7 0 12 2;
#X connect 8 0 12 3;
#X connect 9 0 12 4;
#X connect 11 0 9 0;
#X connect 11 0 8 0;
#X connect 11 0 7 0;
#X connect 11 0 6 0;
#X connect 11 0 14 0;
#X connect 12 0 13 0;
#X connect 12 1 13 1;
#X connect 12 2 13 2;
#X connect 13 0 5 0;
#X connect 14 0 13 3;
#X restore 1422 -254 pd map;
#X msg 1498 -288 0;
#X msg 1530 -288 1;
#N canvas 740 247 450 296 map 0;
#X obj 75 114 inlet;
#X obj 226 114 inlet;
#X obj 150 114 inlet;
#X obj 302 114 inlet;
#X obj 378 114 inlet;
#X obj 75 286 outlet;
#X obj 150 140 float \$1;
#X obj 226 140 float \$2;
#X obj 302 140 float \$3;
#X obj 378 140 float \$4;
#X text 306 275 by Adrian Rennertz;
#X obj 371 87 loadbang;
#X obj 75 177 expr if($f2 == $f3 \, -1 \, (((($f1-$f2) / ($f3-$f2))
* ($f5-$f4)) + $f4)) \; $f4 \; $f5 \;;
#X obj 75 265 limit;
#X msg 371 240 0;
#X text 70 18 inlets are (from left to right) input_value - input_range_low
- input_range_high - output_range_low - output_range_high. low and
high can be switched to invert the value. values that exceed the output
range will output the treshold.;
#X connect 0 0 12 0;
#X connect 1 0 7 0;
#X connect 2 0 6 0;
#X connect 3 0 8 0;
#X connect 4 0 9 0;
#X connect 6 0 12 1;
#X connect 7 0 12 2;
#X connect 8 0 12 3;
#X connect 9 0 12 4;
#X connect 11 0 9 0;
#X connect 11 0 8 0;
#X connect 11 0 7 0;
#X connect 11 0 6 0;
#X connect 11 0 14 0;
#X connect 12 0 13 0;
#X connect 12 1 13 1;
#X connect 12 2 13 2;
#X connect 13 0 5 0;
#X connect 14 0 13 3;
#X restore 1420 -71 pd map;
#X msg 1496 -105 0;
#X msg 1528 -105 1;
#X obj 1424 167 hsl 128 15 1 0 0 0 empty empty empty -2 -8 0 10 -262144
-1 -1 0 1;
#N canvas 740 247 450 296 map 0;
#X obj 75 114 inlet;
#X obj 226 114 inlet;
#X obj 150 114 inlet;
#X obj 302 114 inlet;
#X obj 378 114 inlet;
#X obj 75 286 outlet;
#X obj 150 140 float \$1;
#X obj 226 140 float \$2;
#X obj 302 140 float \$3;
#X obj 378 140 float \$4;
#X text 306 275 by Adrian Rennertz;
#X obj 371 87 loadbang;
#X obj 75 177 expr if($f2 == $f3 \, -1 \, (((($f1-$f2) / ($f3-$f2))
* ($f5-$f4)) + $f4)) \; $f4 \; $f5 \;;
#X obj 75 265 limit;
#X msg 371 240 0;
#X text 70 18 inlets are (from left to right) input_value - input_range_low
- input_range_high - output_range_low - output_range_high. low and
high can be switched to invert the value. values that exceed the output
range will output the treshold.;
#X connect 0 0 12 0;
#X connect 1 0 7 0;
#X connect 2 0 6 0;
#X connect 3 0 8 0;
#X connect 4 0 9 0;
#X connect 6 0 12 1;
#X connect 7 0 12 2;
#X connect 8 0 12 3;
#X connect 9 0 12 4;
#X connect 11 0 9 0;
#X connect 11 0 8 0;
#X connect 11 0 7 0;
#X connect 11 0 6 0;
#X connect 11 0 14 0;
#X connect 12 0 13 0;
#X connect 12 1 13 1;
#X connect 12 2 13 2;
#X connect 13 0 5 0;
#X connect 14 0 13 3;
#X restore 1422 134 pd map;
#X obj 1656 -372 unpack f f f;
#X obj 1634 -229 hsl 128 15 0 1 0 0 empty empty empty -2 -8 0 10 -262144
-1 -1 0 1;
#N canvas 740 247 450 296 map 0;
#X obj 75 114 inlet;
#X obj 226 114 inlet;
#X obj 150 114 inlet;
#X obj 302 114 inlet;
#X obj 378 114 inlet;
#X obj 75 286 outlet;
#X obj 150 140 float \$1;
#X obj 226 140 float \$2;
#X obj 302 140 float \$3;
#X obj 378 140 float \$4;
#X text 306 275 by Adrian Rennertz;
#X obj 371 87 loadbang;
#X obj 75 177 expr if($f2 == $f3 \, -1 \, (((($f1-$f2) / ($f3-$f2))
* ($f5-$f4)) + $f4)) \; $f4 \; $f5 \;;
#X obj 75 265 limit;
#X msg 371 240 0;
#X text 70 18 inlets are (from left to right) input_value - input_range_low
- input_range_high - output_range_low - output_range_high. low and
high can be switched to invert the value. values that exceed the output
range will output the treshold.;
#X connect 0 0 12 0;
#X connect 1 0 7 0;
#X connect 2 0 6 0;
#X connect 3 0 8 0;
#X connect 4 0 9 0;
#X connect 6 0 12 1;
#X connect 7 0 12 2;
#X connect 8 0 12 3;
#X connect 9 0 12 4;
#X connect 11 0 9 0;
#X connect 11 0 8 0;
#X connect 11 0 7 0;
#X connect 11 0 6 0;
#X connect 11 0 14 0;
#X connect 12 0 13 0;
#X connect 12 1 13 1;
#X connect 12 2 13 2;
#X connect 13 0 5 0;
#X connect 14 0 13 3;
#X restore 1668 -254 pd map;
#N canvas 740 247 450 296 map 0;
#X obj 75 114 inlet;
#X obj 226 114 inlet;
#X obj 150 114 inlet;
#X obj 302 114 inlet;
#X obj 378 114 inlet;
#X obj 75 286 outlet;
#X obj 150 140 float \$1;
#X obj 226 140 float \$2;
#X obj 302 140 float \$3;
#X obj 378 140 float \$4;
#X text 306 275 by Adrian Rennertz;
#X obj 371 87 loadbang;
#X obj 75 177 expr if($f2 == $f3 \, -1 \, (((($f1-$f2) / ($f3-$f2))
* ($f5-$f4)) + $f4)) \; $f4 \; $f5 \;;
#X obj 75 265 limit;
#X msg 371 240 0;
#X text 70 18 inlets are (from left to right) input_value - input_range_low
- input_range_high - output_range_low - output_range_high. low and
high can be switched to invert the value. values that exceed the output
range will output the treshold.;
#X connect 0 0 12 0;
#X connect 1 0 7 0;
#X connect 2 0 6 0;
#X connect 3 0 8 0;
#X connect 4 0 9 0;
#X connect 6 0 12 1;
#X connect 7 0 12 2;
#X connect 8 0 12 3;
#X connect 9 0 12 4;
#X connect 11 0 9 0;
#X connect 11 0 8 0;
#X connect 11 0 7 0;
#X connect 11 0 6 0;
#X connect 11 0 14 0;
#X connect 12 0 13 0;
#X connect 12 1 13 1;
#X connect 12 2 13 2;
#X connect 13 0 5 0;
#X connect 14 0 13 3;
#X restore 1661 -73 pd map;
#X msg 1721 -107 0;
#X msg 1749 -109 1;
#X obj 1664 157 hsl 128 15 0 1 0 0 empty empty empty -2 -8 0 10 -262144
-1 -1 0 1;
#N canvas 740 247 450 296 map 0;
#X obj 75 114 inlet;
#X obj 226 114 inlet;
#X obj 150 114 inlet;
#X obj 302 114 inlet;
#X obj 378 114 inlet;
#X obj 75 286 outlet;
#X obj 150 140 float \$1;
#X obj 226 140 float \$2;
#X obj 302 140 float \$3;
#X obj 378 140 float \$4;
#X text 306 275 by Adrian Rennertz;
#X obj 371 87 loadbang;
#X obj 75 177 expr if($f2 == $f3 \, -1 \, (((($f1-$f2) / ($f3-$f2))
* ($f5-$f4)) + $f4)) \; $f4 \; $f5 \;;
#X obj 75 265 limit;
#X msg 371 240 0;
#X text 70 18 inlets are (from left to right) input_value - input_range_low
- input_range_high - output_range_low - output_range_high. low and
high can be switched to invert the value. values that exceed the output
range will output the treshold.;
#X connect 0 0 12 0;
#X connect 1 0 7 0;
#X connect 2 0 6 0;
#X connect 3 0 8 0;
#X connect 4 0 9 0;
#X connect 6 0 12 1;
#X connect 7 0 12 2;
#X connect 8 0 12 3;
#X connect 9 0 12 4;
#X connect 11 0 9 0;
#X connect 11 0 8 0;
#X connect 11 0 7 0;
#X connect 11 0 6 0;
#X connect 11 0 14 0;
#X connect 12 0 13 0;
#X connect 12 1 13 1;
#X connect 12 2 13 2;
#X connect 13 0 5 0;
#X connect 14 0 13 3;
#X restore 1661 128 pd map;
#X msg 1732 95 0;
#X msg 1761 96 1;
#X floatatom 1385 -72 5 0 0 0 - - -;
#X floatatom 1387 -253 5 0 0 0 - - -;
#X floatatom 1387 134 5 0 0 0 - - -;
#X floatatom 1623 128 5 0 0 0 - - -;
#X floatatom 1620 -74 5 0 0 0 - - -;
#X floatatom 1623 -257 5 0 0 0 - - -;
#X text 1654 -431 LeftHandRelative;
#X msg 1498 100 0;
#X msg 1530 100 1;
#X obj 1513 58 loadbang;
#X obj 1752 62 loadbang;
#X obj 1518 -138 loadbang;
#X obj 1731 -139 loadbang;
#X obj 1510 -316 loadbang;
#X obj 1723 -317 loadbang;
#X text 1419 -450 in;
#X text 1193 -486 RHX master crossfader LHX (layer opacity) RHY change
layer set A LHY change layer set B RHZ trigger pulse clips LHZ trigger
pulse clips;
#X text 1010 -256 ref. layer 1/6 pulse clip layer 2/7 pulse clip layer
3/8 layer 4/9 layer 5/10 syphon input;
#X floatatom 540 -715 5 0 0 0 - - -;
#X text 595 -841 dunoOSC listens for incoming messages in PD;
#X obj 540 -746 unpack f f f;
#X obj 540 -784 OSCroute /rightHand;
#X obj 673 -747 unpack f f f;
#X floatatom 673 -715 5 0 0 0 - - -;
#X obj 565 -679 -;
#X floatatom 565 -647 5 0 0 0 - - -;
#X floatatom 819 -715 5 0 0 0 - - -;
#X obj 819 -746 unpack f f f;
#X obj 952 -747 unpack f f f;
#X floatatom 952 -715 5 0 0 0 - - -;
#X obj 819 -679 -;
#X floatatom 819 -647 5 0 0 0 - - -;
#X obj 612 -602 pack f f f;
#X obj 639 -679 -;
#X floatatom 639 -647 5 0 0 0 - - -;
#X floatatom 579 -715 5 0 0 0 - - -;
#X floatatom 712 -715 5 0 0 0 - - -;
#X floatatom 620 -715 5 0 0 0 - - -;
#X floatatom 758 -715 5 0 0 0 - - -;
#X obj 704 -679 -;
#X floatatom 704 -647 5 0 0 0 - - -;
#X floatatom 854 -715 5 0 0 0 - - -;
#X floatatom 888 -715 5 0 0 0 - - -;
#X obj 893 -677 -;
#X floatatom 893 -645 5 0 0 0 - - -;
#X floatatom 987 -714 5 0 0 0 - - -;
#X floatatom 1023 -713 5 0 0 0 - - -;
#X obj 967 -678 -;
#X floatatom 967 -646 5 0 0 0 - - -;
#X obj 871 -600 pack f f f;
#X text 595 -885 primary in KINECT;
#X obj 804 -889 inlet;
#X obj 612 -569 s relativeRightHand1;
#X obj 871 -574 s relativeLeftHand1;
#X obj 1422 -407 r relativeRightHand1;
#X obj 1417 -203 s RHXOUT1;
#X obj 1631 -206 s LHXOUT1;
#X obj 1661 -18 s LHYOUT1;
#X obj 1420 -16 s RHYOUT1;
#X obj 1421 189 s RHZOUT1;
#X obj 1661 182 s LHZOUT1;
#X obj -27 550 r RHXOUT1;
#X obj -479 548 r RHYOUT1;
#X obj 1005 539 r LHYOUT1;
#X obj 1422 -346 s RHX1;
#X obj 1461 -345 s RHY1;
#X obj 1499 -345 s RHZ1;
#X obj 1656 -342 s LHX1;
#X obj 1695 -341 s LHY1;
#X obj 1733 -341 s LHZ1;
#X obj 1388 -286 r RHX1;
#X obj 1623 -289 r LHX1;
#X obj 1620 -107 r LHY1;
#X obj 1385 -105 r RHY1;
#X obj 1387 98 r RHZ1;
#X obj 1623 95 r LHZ1;
#X obj 1656 -404 r relativeLeftHand1;
#X obj 819 -784 OSCroute /leftHand;
#X obj -709 770 r bangState1;
#X obj 845 736 r bangState1;
#X obj 673 -784 OSCroute /rightShoulder;
#X obj 952 -784 OSCroute /leftShoulder;
#X msg 1430 -288 -450;
#X msg 1466 -288 450;
#X msg 1666 -289 -450;
#X msg 1702 -290 450;
#X obj 1521 -78 vsl 15 128 0 1 0 0 empty empty empty 0 -9 0 10 -262144
-1 -1 0 1;
#X obj 1596 -69 vsl 15 128 0 1 0 0 empty empty empty 0 -9 0 10 -262144
-1 -1 0 1;
#X msg 1429 99 -500;
#X msg 1661 95 -500;
#X msg 1428 -105 -450;
#X msg 1464 -105 450;
#X msg 1659 -108 -450;
#X msg 1693 -107 450;
#X msg 1463 100 -250;
#X msg 1696 94 -250;
#X msg -517 816 /md8key/ctrl_master_layerSetGroupA/1 \$1;
#X msg 1766 -290 1;
#X msg 1734 -290 0;
#X msg -445 569 0.3;
#X msg -408 570 0.7;
#X msg 1039 560 0.3;
#X msg 1076 561 0.7;
#X floatatom 1800 550 5 0 0 0 - - -;
#X floatatom 1804 627 5 0 0 0 - - -;
#X floatatom 383 572 5 0 0 0 - - -;
#X floatatom 383 639 5 0 0 0 - - -;
#X msg 428 572 /md8key/ctrl_layer_movie_speedFactor/2 \$1;
#X msg 426 640 /md8key/ctrl_layer_alpha/2 \$1;
#X floatatom 381 718 5 0 0 0 - - -;
#X floatatom 383 795 5 0 0 0 - - -;
#X msg 426 718 /md8key/ctrl_layer_movie_speedFactor/7 \$1;
#X msg 426 796 /md8key/ctrl_layer_alpha/7 \$1;
#X text 393 693 7;
#X text 391 533 2;
#X obj 1846 575 s out;
#X obj 1847 649 s out;
#X obj 428 595 s out;
#X obj 426 666 s out;
#X obj 426 741 s out;
#X obj 425 823 s out;
#X obj 1845 521 r LHZOUT1;
#X obj 426 696 r RHZOUT1;
#X obj 427 546 r RHZOUT1;
#X obj 427 619 r RHZOUT1;
#X obj 425 769 r RHZOUT1;
#X floatatom 1799 907 5 0 0 0 - - -;
#X obj 1845 932 s out;
#X msg 1844 907 /md8key/ctrl_layer_scale_uniform/2 \$1;
#X floatatom 1798 988 5 0 0 0 - - -;
#X obj 1844 1013 s out;
#X floatatom 378 1009 5 0 0 0 - - -;
#X obj 424 1034 s out;
#X msg 1843 988 /md8key/ctrl_layer_scale_uniform/7 \$1;
#X msg 423 1009 /md8key/ctrl_layer_scale_uniform/8 \$1;
#X floatatom 1389 581 5 0 0 0 - - -;
#X obj 1435 606 s out;
#X msg 1434 581 /md8key/ctrl_layer_auto_rotateZSpeed/2 \$1;
#X floatatom 1390 665 5 0 0 0 - - -;
#X obj 1436 690 s out;
#X msg 1435 665 /md8key/ctrl_layer_auto_rotateYSpeed/7 \$1;
#X floatatom -78 951 5 0 0 0 - - -;
#X obj -32 976 s out;
#X msg -33 951 /md8key/ctrl_layer_auto_rotateYSpeed/8 \$1;
#X floatatom -71 730 5 0 0 0 - - -;
#X obj -25 755 s out;
#X floatatom -74 830 5 0 0 0 - - -;
#X obj -28 855 s out;
#X text -62 670 rotation position;
#X floatatom 1390 809 5 0 0 0 - - -;
#X text 1400 782 1;
#X obj 1436 834 s out;
#X msg 1435 809 /md8key/ctrl_layer_rotation_y/8 \$1;
#X msg -29 830 /md8key/ctrl_layer_rotation_y/7 \$1;
#X msg -26 730 /md8key/ctrl_layer_rotation_y/2 \$1;
#X obj 1847 599 r LHZOUT1;
#X obj 423 980 r RHZOUT1;
#X obj 1843 959 r LHZOUT1;
#X obj 1844 878 r LHZOUT1;
#X obj -33 922 r RHXOUT1;
#X obj 1434 552 r LHXOUT1;
#X obj 1435 636 r LHXOUT1;
#X obj -26 701 r RHXOUT1;
#X obj -29 801 r RHXOUT1;
#X obj 1435 780 r LHXOUT1;
#X msg 1847 628 /md8key/ctrl_layer_alpha/3 \$1;
#X msg 1845 550 /md8key/ctrl_layer_movie_speedFactor/3 \$1;
#X text 1810 523 3;
#X text 1816 599 3;
#X text 395 611 2;
#X text 416 475 RHZ;
#X text 393 769 7;
#X text 1795 503 pulse clips;
#X floatatom 1799 710 5 0 0 0 - - -;
#X floatatom 1803 787 5 0 0 0 - - -;
#X obj 1845 735 s out;
#X obj 1846 809 s out;
#X obj 1844 681 r LHZOUT1;
#X obj 1846 759 r LHZOUT1;
#X msg 1844 710 /md8key/ctrl_layer_movie_speedFactor/8 \$1;
#X msg 1846 788 /md8key/ctrl_layer_alpha/8 \$1;
#X text 1809 683 8;
#X text 1815 759 8;
#X text 1808 847 size clips;
#X text 1809 880 2;
#X text 1808 961 7;
#X text 388 982 8;
#X floatatom 379 925 5 0 0 0 - - -;
#X obj 425 950 s out;
#X obj 424 896 r RHZOUT1;
#X msg 424 925 /md8key/ctrl_layer_scale_uniform/3 \$1;
#X text 389 898 3;
#X text -68 924 8;
#X text -77 888 layer rotation speed;
#X text 1399 554 2;
#X text 1400 638 7;
#X text -476 452 RHY;
#X text -60 446 RHX;
#X text 1001 485 LHY;
#X text 1404 482 LHX;
#X text 1845 486 LHZ;
#X text 380 514 speed/alpha;
#X text -79 866 comment;
#X text 378 867 layer scale;
#X text -61 703 2;
#X text -64 803 7;
#X text 1403 521 layer auto rotation speed;
#X text 1384 747 layer rotation position;
#X connect 0 0 2 0;
#X connect 1 0 0 3;
#X connect 2 0 3 0;
#X connect 3 0 4 0;
#X connect 4 0 38 0;
#X connect 5 0 8 1;
#X connect 6 0 7 1;
#X connect 7 0 5 0;
#X connect 7 0 9 0;
#X connect 8 0 6 0;
#X connect 8 0 10 0;
#X connect 9 0 12 0;
#X connect 9 0 160 0;
#X connect 10 0 12 0;
#X connect 10 0 160 0;
#X connect 14 0 16 0;
#X connect 15 0 14 3;
#X connect 16 0 17 0;
#X connect 17 0 18 0;
#X connect 18 0 42 0;
#X connect 19 0 22 1;
#X connect 20 0 21 1;
#X connect 21 0 19 0;
#X connect 21 0 23 0;
#X connect 22 0 20 0;
#X connect 22 0 24 0;
#X connect 23 0 28 0;
#X connect 23 0 26 0;
#X connect 24 0 28 0;
#X connect 24 0 26 0;
#X connect 28 0 25 0;
#X connect 30 0 31 0;
#X connect 31 0 35 0;
#X connect 33 0 40 0;
#X connect 33 0 15 0;
#X connect 33 0 166 0;
#X connect 33 0 165 0;
#X connect 34 0 163 0;
#X connect 34 0 164 0;
#X connect 34 0 1 0;
#X connect 34 0 39 0;
#X connect 36 0 5 0;
#X connect 36 0 6 0;
#X connect 37 0 19 0;
#X connect 37 0 20 0;
#X connect 38 0 7 0;
#X connect 38 1 8 0;
#X connect 39 0 0 4;
#X connect 40 0 14 4;
#X connect 42 0 21 0;
#X connect 42 1 22 0;
#X connect 44 0 128 0;
#X connect 44 1 129 0;
#X connect 44 2 130 0;
#X connect 45 0 119 0;
#X connect 46 0 45 0;
#X connect 47 0 46 3;
#X connect 48 0 46 4;
#X connect 49 0 150 0;
#X connect 50 0 49 3;
#X connect 51 0 49 4;
#X connect 52 0 123 0;
#X connect 53 0 52 0;
#X connect 54 0 131 0;
#X connect 54 1 132 0;
#X connect 54 2 133 0;
#X connect 55 0 120 0;
#X connect 56 0 55 0;
#X connect 57 0 151 0;
#X connect 58 0 57 3;
#X connect 59 0 57 4;
#X connect 60 0 124 0;
#X connect 61 0 60 0;
#X connect 62 0 61 3;
#X connect 63 0 61 4;
#X connect 71 0 53 3;
#X connect 72 0 53 4;
#X connect 73 0 71 0;
#X connect 73 0 72 0;
#X connect 73 0 158 0;
#X connect 73 0 152 0;
#X connect 74 0 153 0;
#X connect 74 0 159 0;
#X connect 74 0 62 0;
#X connect 74 0 63 0;
#X connect 75 0 50 0;
#X connect 75 0 51 0;
#X connect 75 0 155 0;
#X connect 75 0 154 0;
#X connect 76 0 59 0;
#X connect 76 0 58 0;
#X connect 76 0 157 0;
#X connect 76 0 156 0;
#X connect 77 0 48 0;
#X connect 77 0 47 0;
#X connect 77 0 147 0;
#X connect 77 0 146 0;
#X connect 78 0 161 0;
#X connect 78 0 162 0;
#X connect 78 0 149 0;
#X connect 78 0 148 0;
#X connect 82 0 88 0;
#X connect 84 0 82 0;
#X connect 84 1 99 0;
#X connect 84 2 101 0;
#X connect 85 0 84 0;
#X connect 86 0 87 0;
#X connect 86 1 100 0;
#X connect 86 2 102 0;
#X connect 87 0 88 1;
#X connect 88 0 89 0;
#X connect 89 0 96 0;
#X connect 90 0 94 0;
#X connect 91 0 90 0;
#X connect 91 1 105 0;
#X connect 91 2 106 0;
#X connect 92 0 93 0;
#X connect 92 1 109 0;
#X connect 92 2 110 0;
#X connect 93 0 94 1;
#X connect 94 0 95 0;
#X connect 95 0 113 0;
#X connect 96 0 116 0;
#X connect 97 0 98 0;
#X connect 98 0 96 1;
#X connect 99 0 97 0;
#X connect 100 0 97 1;
#X connect 101 0 103 0;
#X connect 102 0 103 1;
#X connect 103 0 104 0;
#X connect 104 0 96 2;
#X connect 105 0 107 0;
#X connect 106 0 111 0;
#X connect 107 0 108 0;
#X connect 108 0 113 1;
#X connect 109 0 107 1;
#X connect 110 0 111 1;
#X connect 111 0 112 0;
#X connect 112 0 113 2;
#X connect 113 0 117 0;
#X connect 115 0 85 0;
#X connect 115 0 141 0;
#X connect 115 0 144 0;
#X connect 115 0 145 0;
#X connect 118 0 44 0;
#X connect 125 0 31 0;
#X connect 126 0 0 0;
#X connect 127 0 14 0;
#X connect 134 0 46 0;
#X connect 134 0 65 0;
#X connect 135 0 56 0;
#X connect 135 0 69 0;
#X connect 136 0 57 0;
#X connect 136 0 68 0;
#X connect 137 0 49 0;
#X connect 137 0 64 0;
#X connect 138 0 53 0;
#X connect 138 0 66 0;
#X connect 139 0 61 0;
#X connect 139 0 67 0;
#X connect 140 0 54 0;
#X connect 141 0 91 0;
#X connect 142 0 10 0;
#X connect 143 0 24 0;
#X connect 144 0 86 0;
#X connect 145 0 92 0;
#X connect 146 0 46 1;
#X connect 147 0 46 2;
#X connect 148 0 56 1;
#X connect 149 0 56 2;
#X connect 150 0 122 0;
#X connect 151 0 121 0;
#X connect 152 0 53 1;
#X connect 153 0 61 1;
#X connect 154 0 49 1;
#X connect 155 0 49 2;
#X connect 156 0 57 1;
#X connect 157 0 57 2;
#X connect 158 0 53 2;
#X connect 159 0 61 2;
#X connect 160 0 11 0;
#X connect 161 0 56 4;
#X connect 162 0 56 3;
#X connect 163 0 0 1;
#X connect 164 0 0 2;
#X connect 165 0 14 1;
#X connect 166 0 14 2;
#X connect 167 0 230 0;
#X connect 168 0 229 0;
#X connect 169 0 171 0;
#X connect 170 0 172 0;
#X connect 171 0 181 0;
#X connect 172 0 182 0;
#X connect 173 0 175 0;
#X connect 174 0 176 0;
#X connect 175 0 183 0;
#X connect 176 0 184 0;
#X connect 185 0 230 0;
#X connect 186 0 175 0;
#X connect 187 0 171 0;
#X connect 188 0 172 0;
#X connect 189 0 176 0;
#X connect 190 0 192 0;
#X connect 192 0 191 0;
#X connect 193 0 197 0;
#X connect 195 0 198 0;
#X connect 197 0 194 0;
#X connect 198 0 196 0;
#X connect 199 0 201 0;
#X connect 201 0 200 0;
#X connect 202 0 204 0;
#X connect 204 0 203 0;
#X connect 205 0 207 0;
#X connect 207 0 206 0;
#X connect 208 0 218 0;
#X connect 210 0 217 0;
#X connect 213 0 216 0;
#X connect 216 0 215 0;
#X connect 217 0 211 0;
#X connect 218 0 209 0;
#X connect 219 0 229 0;
#X connect 220 0 198 0;
#X connect 221 0 197 0;
#X connect 222 0 192 0;
#X connect 223 0 207 0;
#X connect 224 0 201 0;
#X connect 225 0 204 0;
#X connect 226 0 218 0;
#X connect 227 0 217 0;
#X connect 228 0 216 0;
#X connect 229 0 180 0;
#X connect 230 0 179 0;
#X connect 237 0 243 0;
#X connect 238 0 244 0;
#X connect 241 0 243 0;
#X connect 242 0 244 0;
#X connect 243 0 239 0;
#X connect 244 0 240 0;
#X connect 251 0 254 0;
#X connect 253 0 254 0;
#X connect 254 0 252 0;
#X restore 131 -828 pd position1;
#N canvas 380 200 1108 747 position3 1;
#X text 556 579 RHZ;
#X text -336 556 RHY;
#X text 80 550 RHX;
#X text 1141 589 LHY;
#X text 1544 586 LHX;
#X text 1947 580 LHZ;
#X floatatom 572 -695 5 0 0 0 - - -;
#X text 615 -821 dunoOSC listens for incoming messages in PD;
#X obj 572 -726 unpack f f f;
#X obj 572 -764 OSCroute /rightHand;
#X obj 705 -727 unpack f f f;
#X floatatom 705 -695 5 0 0 0 - - -;
#X obj 597 -659 -;
#X floatatom 597 -627 5 0 0 0 - - -;
#X obj 498 -710 print;
#X floatatom 839 -695 5 0 0 0 - - -;
#X obj 839 -726 unpack f f f;
#X obj 972 -727 unpack f f f;
#X floatatom 972 -695 5 0 0 0 - - -;
#X obj 839 -659 -;
#X floatatom 839 -627 5 0 0 0 - - -;
#X obj 644 -582 pack f f f;
#X obj 671 -659 -;
#X floatatom 671 -627 5 0 0 0 - - -;
#X floatatom 611 -695 5 0 0 0 - - -;
#X floatatom 744 -695 5 0 0 0 - - -;
#X floatatom 652 -695 5 0 0 0 - - -;
#X floatatom 778 -695 5 0 0 0 - - -;
#X obj 736 -659 -;
#X floatatom 736 -627 5 0 0 0 - - -;
#X floatatom 874 -695 5 0 0 0 - - -;
#X floatatom 908 -695 5 0 0 0 - - -;
#X obj 913 -657 -;
#X floatatom 913 -625 5 0 0 0 - - -;
#X floatatom 1007 -694 5 0 0 0 - - -;
#X floatatom 1043 -693 5 0 0 0 - - -;
#X obj 987 -658 -;
#X floatatom 987 -626 5 0 0 0 - - -;
#X obj 891 -580 pack f f f;
#X text 615 -865 primary in KINECT;
#X text 1431 -421 RightHandRelative;
#X obj 1432 -364 unpack f f f;
#X obj 1429 -215 hsl 128 15 1 0 0 0 empty empty empty -2 -8 0 10 -262144
-1 -1 0 1;
#N canvas 740 247 450 296 map 0;
#X obj 75 114 inlet;
#X obj 226 114 inlet;
#X obj 150 114 inlet;
#X obj 302 114 inlet;
#X obj 378 114 inlet;
#X obj 75 286 outlet;
#X obj 150 140 float \$1;
#X obj 226 140 float \$2;
#X obj 302 140 float \$3;
#X obj 378 140 float \$4;
#X text 306 275 by Adrian Rennertz;
#X obj 371 87 loadbang;
#X obj 75 177 expr if($f2 == $f3 \, -1 \, (((($f1-$f2) / ($f3-$f2))
* ($f5-$f4)) + $f4)) \; $f4 \; $f5 \;;
#X obj 75 265 limit;
#X msg 371 240 0;
#X text 70 18 inlets are (from left to right) input_value - input_range_low
- input_range_high - output_range_low - output_range_high. low and
high can be switched to invert the value. values that exceed the output
range will output the treshold.;
#X connect 0 0 12 0;
#X connect 1 0 7 0;
#X connect 2 0 6 0;
#X connect 3 0 8 0;
#X connect 4 0 9 0;
#X connect 6 0 12 1;
#X connect 7 0 12 2;
#X connect 8 0 12 3;
#X connect 9 0 12 4;
#X connect 11 0 9 0;
#X connect 11 0 8 0;
#X connect 11 0 7 0;
#X connect 11 0 6 0;
#X connect 11 0 14 0;
#X connect 12 0 13 0;
#X connect 12 1 13 1;
#X connect 12 2 13 2;
#X connect 13 0 5 0;
#X connect 14 0 13 3;
#X restore 1432 -244 pd map;
#X msg 1508 -278 0;
#X msg 1540 -278 1;
#N canvas 740 247 450 296 map 0;
#X obj 75 114 inlet;
#X obj 226 114 inlet;
#X obj 150 114 inlet;
#X obj 302 114 inlet;
#X obj 378 114 inlet;
#X obj 75 286 outlet;
#X obj 150 140 float \$1;
#X obj 226 140 float \$2;
#X obj 302 140 float \$3;
#X obj 378 140 float \$4;
#X text 306 275 by Adrian Rennertz;
#X obj 371 87 loadbang;
#X obj 75 177 expr if($f2 == $f3 \, -1 \, (((($f1-$f2) / ($f3-$f2))
* ($f5-$f4)) + $f4)) \; $f4 \; $f5 \;;
#X obj 75 265 limit;
#X msg 371 240 0;
#X text 70 18 inlets are (from left to right) input_value - input_range_low
- input_range_high - output_range_low - output_range_high. low and
high can be switched to invert the value. values that exceed the output
range will output the treshold.;
#X connect 0 0 12 0;
#X connect 1 0 7 0;
#X connect 2 0 6 0;
#X connect 3 0 8 0;
#X connect 4 0 9 0;
#X connect 6 0 12 1;
#X connect 7 0 12 2;
#X connect 8 0 12 3;
#X connect 9 0 12 4;
#X connect 11 0 9 0;
#X connect 11 0 8 0;
#X connect 11 0 7 0;
#X connect 11 0 6 0;
#X connect 11 0 14 0;
#X connect 12 0 13 0;
#X connect 12 1 13 1;
#X connect 12 2 13 2;
#X connect 13 0 5 0;
#X connect 14 0 13 3;
#X restore 1430 -61 pd map;
#X msg 1506 -95 0;
#X msg 1538 -95 1;
#X obj 1414 191 hsl 128 15 1 0 0 0 empty empty empty -2 -8 0 10 -262144
-1 -1 0 1;
#N canvas 740 247 450 296 map 0;
#X obj 75 114 inlet;
#X obj 226 114 inlet;
#X obj 150 114 inlet;
#X obj 302 114 inlet;
#X obj 378 114 inlet;
#X obj 75 286 outlet;
#X obj 150 140 float \$1;
#X obj 226 140 float \$2;
#X obj 302 140 float \$3;
#X obj 378 140 float \$4;
#X text 306 275 by Adrian Rennertz;
#X obj 371 87 loadbang;
#X obj 75 177 expr if($f2 == $f3 \, -1 \, (((($f1-$f2) / ($f3-$f2))
* ($f5-$f4)) + $f4)) \; $f4 \; $f5 \;;
#X obj 75 265 limit;
#X msg 371 240 0;
#X text 70 18 inlets are (from left to right) input_value - input_range_low
- input_range_high - output_range_low - output_range_high. low and
high can be switched to invert the value. values that exceed the output
range will output the treshold.;
#X connect 0 0 12 0;
#X connect 1 0 7 0;
#X connect 2 0 6 0;
#X connect 3 0 8 0;
#X connect 4 0 9 0;
#X connect 6 0 12 1;
#X connect 7 0 12 2;
#X connect 8 0 12 3;
#X connect 9 0 12 4;
#X connect 11 0 9 0;
#X connect 11 0 8 0;
#X connect 11 0 7 0;
#X connect 11 0 6 0;
#X connect 11 0 14 0;
#X connect 12 0 13 0;
#X connect 12 1 13 1;
#X connect 12 2 13 2;
#X connect 13 0 5 0;
#X connect 14 0 13 3;
#X restore 1412 158 pd map;
#X obj 1666 -362 unpack f f f;
#X obj 1644 -219 hsl 128 15 0 1 0 0 empty empty empty -2 -8 0 10 -262144
-1 -1 0 1;
#N canvas 740 247 450 296 map 0;
#X obj 75 114 inlet;
#X obj 226 114 inlet;
#X obj 150 114 inlet;
#X obj 302 114 inlet;
#X obj 378 114 inlet;
#X obj 75 286 outlet;
#X obj 150 140 float \$1;
#X obj 226 140 float \$2;
#X obj 302 140 float \$3;
#X obj 378 140 float \$4;
#X text 306 275 by Adrian Rennertz;
#X obj 371 87 loadbang;
#X obj 75 177 expr if($f2 == $f3 \, -1 \, (((($f1-$f2) / ($f3-$f2))
* ($f5-$f4)) + $f4)) \; $f4 \; $f5 \;;
#X obj 75 265 limit;
#X msg 371 240 0;
#X text 70 18 inlets are (from left to right) input_value - input_range_low
- input_range_high - output_range_low - output_range_high. low and
high can be switched to invert the value. values that exceed the output
range will output the treshold.;
#X connect 0 0 12 0;
#X connect 1 0 7 0;
#X connect 2 0 6 0;
#X connect 3 0 8 0;
#X connect 4 0 9 0;
#X connect 6 0 12 1;
#X connect 7 0 12 2;
#X connect 8 0 12 3;
#X connect 9 0 12 4;
#X connect 11 0 9 0;
#X connect 11 0 8 0;
#X connect 11 0 7 0;
#X connect 11 0 6 0;
#X connect 11 0 14 0;
#X connect 12 0 13 0;
#X connect 12 1 13 1;
#X connect 12 2 13 2;
#X connect 13 0 5 0;
#X connect 14 0 13 3;
#X restore 1678 -244 pd map;
#N canvas 740 247 450 296 map 0;
#X obj 75 114 inlet;
#X obj 226 114 inlet;
#X obj 150 114 inlet;
#X obj 302 114 inlet;
#X obj 378 114 inlet;
#X obj 75 286 outlet;
#X obj 150 140 float \$1;
#X obj 226 140 float \$2;
#X obj 302 140 float \$3;
#X obj 378 140 float \$4;
#X text 306 275 by Adrian Rennertz;
#X obj 371 87 loadbang;
#X obj 75 177 expr if($f2 == $f3 \, -1 \, (((($f1-$f2) / ($f3-$f2))
* ($f5-$f4)) + $f4)) \; $f4 \; $f5 \;;
#X obj 75 265 limit;
#X msg 371 240 0;
#X text 70 18 inlets are (from left to right) input_value - input_range_low
- input_range_high - output_range_low - output_range_high. low and
high can be switched to invert the value. values that exceed the output
range will output the treshold.;
#X connect 0 0 12 0;
#X connect 1 0 7 0;
#X connect 2 0 6 0;
#X connect 3 0 8 0;
#X connect 4 0 9 0;
#X connect 6 0 12 1;
#X connect 7 0 12 2;
#X connect 8 0 12 3;
#X connect 9 0 12 4;
#X connect 11 0 9 0;
#X connect 11 0 8 0;
#X connect 11 0 7 0;
#X connect 11 0 6 0;
#X connect 11 0 14 0;
#X connect 12 0 13 0;
#X connect 12 1 13 1;
#X connect 12 2 13 2;
#X connect 13 0 5 0;
#X connect 14 0 13 3;
#X restore 1671 -63 pd map;
#X msg 1731 -97 0;
#X msg 1759 -99 1;
#X obj 1672 183 hsl 128 15 0 1 0 0 empty empty empty -2 -8 0 10 -262144
-1 -1 0 1;
#N canvas 740 247 450 296 map 0;
#X obj 75 114 inlet;
#X obj 226 114 inlet;
#X obj 150 114 inlet;
#X obj 302 114 inlet;
#X obj 378 114 inlet;
#X obj 75 286 outlet;
#X obj 150 140 float \$1;
#X obj 226 140 float \$2;
#X obj 302 140 float \$3;
#X obj 378 140 float \$4;
#X text 306 275 by Adrian Rennertz;
#X obj 371 87 loadbang;
#X obj 75 177 expr if($f2 == $f3 \, -1 \, (((($f1-$f2) / ($f3-$f2))
* ($f5-$f4)) + $f4)) \; $f4 \; $f5 \;;
#X obj 75 265 limit;
#X msg 371 240 0;
#X text 70 18 inlets are (from left to right) input_value - input_range_low
- input_range_high - output_range_low - output_range_high. low and
high can be switched to invert the value. values that exceed the output
range will output the treshold.;
#X connect 0 0 12 0;
#X connect 1 0 7 0;
#X connect 2 0 6 0;
#X connect 3 0 8 0;
#X connect 4 0 9 0;
#X connect 6 0 12 1;
#X connect 7 0 12 2;
#X connect 8 0 12 3;
#X connect 9 0 12 4;
#X connect 11 0 9 0;
#X connect 11 0 8 0;
#X connect 11 0 7 0;
#X connect 11 0 6 0;
#X connect 11 0 14 0;
#X connect 12 0 13 0;
#X connect 12 1 13 1;
#X connect 12 2 13 2;
#X connect 13 0 5 0;
#X connect 14 0 13 3;
#X restore 1670 155 pd map;
#X msg 1741 121 0;
#X msg 1770 122 1;
#X floatatom 1395 -62 5 0 0 0 - - -;
#X floatatom 1397 -243 5 0 0 0 - - -;
#X floatatom 1377 158 5 0 0 0 - - -;
#X floatatom 1632 155 5 0 0 0 - - -;
#X floatatom 1630 -64 5 0 0 0 - - -;
#X floatatom 1633 -247 5 0 0 0 - - -;
#X text 1664 -421 LeftHandRelative;
#X msg 1488 124 0;
#X msg 1520 124 1;
#X obj 1498 95 loadbang;
#X obj 1761 88 loadbang;
#X obj 1528 -128 loadbang;
#X obj 1741 -129 loadbang;
#X obj 1520 -306 loadbang;
#X obj 1733 -307 loadbang;
#X text 1429 -440 in;
#X text 1203 -476 RHX master crossfader LHX (layer opacity) RHY change
layer set A LHY change layer set B RHZ trigger pulse clips LHZ trigger
pulse clips;
#X text 1020 -246 ref. layer 1/6 pulse clip layer 2/7 pulse clip layer
3/8 layer 4/9 layer 5/10 syphon input;
#X obj 824 -869 inlet;
#X obj 644 -549 s relativeRightHand3;
#X obj 891 -554 s relativeLeftHand3;
#X obj 1432 -397 r relativeRightHand3;
#X obj 1427 -193 s RHXOUT3;
#X obj 1641 -196 s LHXOUT3;
#X obj 1675 57 s LHYOUT3;
#X obj 1428 44 s RHYOUT3;
#X obj 1411 213 s RHZOUT3;
#X obj 1670 209 s LHZOUT3;
#X obj 1432 -336 s RHX3;
#X obj 1471 -335 s RHY3;
#X obj 1509 -335 s RHZ3;
#X obj 1666 -332 s LHX3;
#X obj 1705 -331 s LHY3;
#X obj 1743 -331 s LHZ3;
#X obj 1398 -276 r RHX3;
#X obj 1633 -279 r LHX3;
#X obj 1395 -95 r RHY3;
#X obj 1630 -97 r LHY3;
#X obj 1632 122 r LHZ3;
#X obj 1666 -394 r relativeLeftHand3;
#X obj 854 -764 OSCroute /leftHand;
#X floatatom 887 -155 5 0 0 0 - - -;
#X obj 955 -122 max;
#X floatatom 882 -93 5 0 0 0 - - -;
#X floatatom 952 -91 5 0 0 0 - - -;
#X obj 887 -123 min;
#X obj 945 -193 bng 15 250 50 0 empty empty empty 17 7 0 10 -262144
-1 -1;
#X msg 948 -167 0;
#X floatatom 1021 10 5 0 0 0 - - -;
#X obj 1089 43 max;
#X floatatom 1016 72 5 0 0 0 - - -;
#X floatatom 1086 74 5 0 0 0 - - -;
#X obj 1021 42 min;
#X obj 1079 -28 bng 15 250 50 0 empty empty empty 17 7 0 10 -262144
-1 -1;
#X msg 1082 -2 0;
#X floatatom 1145 139 5 0 0 0 - - -;
#X obj 1213 172 max;
#X floatatom 1140 201 5 0 0 0 - - -;
#X floatatom 1210 203 5 0 0 0 - - -;
#X obj 1145 171 min;
#X obj 1203 101 bng 15 250 50 0 empty empty empty 17 7 0 10 -262144
-1 -1;
#X msg 1206 127 0;
#X floatatom 1941 -224 5 0 0 0 - - -;
#X obj 2009 -191 max;
#X floatatom 1936 -162 5 0 0 0 - - -;
#X floatatom 2006 -160 5 0 0 0 - - -;
#X obj 1941 -192 min;
#X obj 1999 -262 bng 15 250 50 0 empty empty empty 17 7 0 10 -262144
-1 -1;
#X msg 2002 -236 0;
#X floatatom 2075 -59 5 0 0 0 - - -;
#X obj 2143 -26 max;
#X floatatom 2070 3 5 0 0 0 - - -;
#X floatatom 2140 5 5 0 0 0 - - -;
#X obj 2075 -27 min;
#X obj 2133 -97 bng 15 250 50 0 empty empty empty 17 7 0 10 -262144
-1 -1;
#X msg 2136 -71 0;
#X floatatom 2199 70 5 0 0 0 - - -;
#X obj 2267 103 max;
#X floatatom 2194 132 5 0 0 0 - - -;
#X floatatom 2264 134 5 0 0 0 - - -;
#X obj 2199 102 min;
#X obj 2257 32 bng 15 250 50 0 empty empty empty 17 7 0 10 -262144
-1 -1;
#X msg 2260 58 0;
#X obj 1377 122 r RHZ3;
#X msg 1440 -278 -450;
#X msg 1476 -278 450;
#X obj 705 -764 OSCroute /rightShoulder;
#X obj 972 -764 OSCroute /leftShoulder;
#X msg 1419 123 -500;
#X msg 1670 122 -500;
#X obj 1537 -57 vsl 15 128 0 1 0 0 empty empty empty 0 -9 0 10 -262144
-1 -1 1000 1;
#X obj 1768 -57 vsl 15 128 0 1 0 0 empty empty empty 0 -9 0 10 -262144
-1 -1 0 1;
#X msg 1676 -279 -450;
#X msg 1712 -280 450;
#X msg 1439 -95 -450;
#X msg 1474 -95 450;
#X msg 1669 -98 -450;
#X msg 1703 -97 450;
#X msg 1456 124 -250;
#X msg 1704 121 -250;
#X msg 1744 -280 0;
#X msg 1776 -280 1;
#X text 0 578 master crossfade;
#N canvas 740 247 450 296 map 0;
#X obj 75 114 inlet;
#X obj 226 114 inlet;
#X obj 150 114 inlet;
#X obj 302 114 inlet;
#X obj 378 114 inlet;
#X obj 75 286 outlet;
#X obj 150 140 float \$1;
#X obj 226 140 float \$2;
#X obj 302 140 float \$3;
#X obj 378 140 float \$4;
#X text 306 275 by Adrian Rennertz;
#X obj 371 87 loadbang;
#X obj 75 177 expr if($f2 == $f3 \, -1 \, (((($f1-$f2) / ($f3-$f2))
* ($f5-$f4)) + $f4)) \; $f4 \; $f5 \;;
#X obj 75 265 limit;
#X msg 371 240 0;
#X text 70 18 inlets are (from left to right) input_value - input_range_low
- input_range_high - output_range_low - output_range_high. low and
high can be switched to invert the value. values that exceed the output
range will output the treshold.;
#X connect 0 0 12 0;
#X connect 1 0 7 0;
#X connect 2 0 6 0;
#X connect 3 0 8 0;
#X connect 4 0 9 0;
#X connect 6 0 12 1;
#X connect 7 0 12 2;
#X connect 8 0 12 3;
#X connect 9 0 12 4;
#X connect 11 0 9 0;
#X connect 11 0 8 0;
#X connect 11 0 7 0;
#X connect 11 0 6 0;
#X connect 11 0 14 0;
#X connect 12 0 13 0;
#X connect 12 1 13 1;
#X connect 12 2 13 2;
#X connect 13 0 5 0;
#X connect 14 0 13 3;
#X restore -358 682 pd map;
#X msg -355 644 0;
#X msg -318 645 1;
#X floatatom -359 727 5 0 0 0 - - -;
#X obj -361 758 i;
#X floatatom -364 786 5 0 0 0 - - -;
#X msg -255 649 7;
#X obj -438 829 select 0 1 2 3 4 5 6 7;
#X obj -283 848 onebang;
#X obj -230 847 onebang;
#X obj -181 846 onebang;
#X obj -205 827 bng 15 250 50 0 empty empty empty 17 7 0 10 -262144
-1 -1;
#X obj -184 827 bng 15 250 50 0 empty empty empty 17 7 0 10 -262144
-1 -1;
#X obj -162 827 bng 15 250 50 0 empty empty empty 17 7 0 10 -262144
-1 -1;
#X msg -368 870 5;
#X msg -338 870 6;
#X msg -305 869 7;
#X msg -427 891 /md8key/ctrl_master_layerSetGroupA/1 \$1;
#X obj -427 917 s out;
#X floatatom -463 890 5 0 0 0 - - -;
#X text -391 600 change layer set group A;
#N canvas 740 247 450 296 map 0;
#X obj 75 114 inlet;
#X obj 226 114 inlet;
#X obj 150 114 inlet;
#X obj 302 114 inlet;
#X obj 378 114 inlet;
#X obj 75 286 outlet;
#X obj 150 140 float \$1;
#X obj 226 140 float \$2;
#X obj 302 140 float \$3;
#X obj 378 140 float \$4;
#X text 306 275 by Adrian Rennertz;
#X obj 371 87 loadbang;
#X obj 75 177 expr if($f2 == $f3 \, -1 \, (((($f1-$f2) / ($f3-$f2))
* ($f5-$f4)) + $f4)) \; $f4 \; $f5 \;;
#X obj 75 265 limit;
#X msg 371 240 0;
#X text 70 18 inlets are (from left to right) input_value - input_range_low
- input_range_high - output_range_low - output_range_high. low and
high can be switched to invert the value. values that exceed the output
range will output the treshold.;
#X connect 0 0 12 0;
#X connect 1 0 7 0;
#X connect 2 0 6 0;
#X connect 3 0 8 0;
#X connect 4 0 9 0;
#X connect 6 0 12 1;
#X connect 7 0 12 2;
#X connect 8 0 12 3;
#X connect 9 0 12 4;
#X connect 11 0 9 0;
#X connect 11 0 8 0;
#X connect 11 0 7 0;
#X connect 11 0 6 0;
#X connect 11 0 14 0;
#X connect 12 0 13 0;
#X connect 12 1 13 1;
#X connect 12 2 13 2;
#X connect 13 0 5 0;
#X connect 14 0 13 3;
#X restore 1149 689 pd map;
#X msg 1152 651 0;
#X msg 1189 652 1;
#X floatatom 1148 734 5 0 0 0 - - -;
#X obj 1146 765 i;
#X floatatom 1143 793 5 0 0 0 - - -;
#X msg 1252 656 7;
#X obj 1081 831 select 0 1 2 3 4 5 6 7;
#X obj 1146 861 onebang;
#X obj 1199 860 onebang;
#X obj 1248 859 onebang;
#X obj 1262 842 bng 15 250 50 0 empty empty empty 17 7 0 10 -262144
-1 -1;
#X obj 1283 842 bng 15 250 50 0 empty empty empty 17 7 0 10 -262144
-1 -1;
#X obj 1305 842 bng 15 250 50 0 empty empty empty 17 7 0 10 -262144
-1 -1;
#X msg 1141 880 5;
#X msg 1171 880 6;
#X msg 1204 879 7;
#X obj 1080 924 s out;
#X floatatom 1046 897 5 0 0 0 - - -;
#X text 1116 607 change layer set group B;
#X msg 1080 898 /md8key/ctrl_master_layerSetGroupB/1 \$1;
#X obj 1245 630 loadbang;
#X obj -274 620 loadbang;
#X obj -273 808 loadbang;
#X obj 1226 824 loadbang;
#X text -204 799 5 6 7;
#X text 1279 822 5 6 7;
#X text 1304 811 comment;
#X msg 1221 652 4;
#X msg -286 645 4;
#X obj -389 623 r RHYOUT3;
#X obj 1118 630 r LHYOUT3;
#X obj -560 699 r bangState3;
#X obj 987 760 r bangState3;
#N canvas 740 247 450 296 map 0;
#X obj 75 114 inlet;
#X obj 226 114 inlet;
#X obj 150 114 inlet;
#X obj 302 114 inlet;
#X obj 378 114 inlet;
#X obj 75 286 outlet;
#X obj 150 140 float \$1;
#X obj 226 140 float \$2;
#X obj 302 140 float \$3;
#X obj 378 140 float \$4;
#X text 306 275 by Adrian Rennertz;
#X obj 371 87 loadbang;
#X obj 75 177 expr if($f2 == $f3 \, -1 \, (((($f1-$f2) / ($f3-$f2))
* ($f5-$f4)) + $f4)) \; $f4 \; $f5 \;;
#X obj 75 265 limit;
#X msg 371 240 0;
#X text 70 18 inlets are (from left to right) input_value - input_range_low
- input_range_high - output_range_low - output_range_high. low and
high can be switched to invert the value. values that exceed the output
range will output the treshold.;
#X connect 0 0 12 0;
#X connect 1 0 7 0;
#X connect 2 0 6 0;
#X connect 3 0 8 0;
#X connect 4 0 9 0;
#X connect 6 0 12 1;
#X connect 7 0 12 2;
#X connect 8 0 12 3;
#X connect 9 0 12 4;
#X connect 11 0 9 0;
#X connect 11 0 8 0;
#X connect 11 0 7 0;
#X connect 11 0 6 0;
#X connect 11 0 14 0;
#X connect 12 0 13 0;
#X connect 12 1 13 1;
#X connect 12 2 13 2;
#X connect 13 0 5 0;
#X connect 14 0 13 3;
#X restore -362 1043 pd map;
#X msg -359 1005 0;
#X msg -322 1006 1;
#X floatatom -363 1088 5 0 0 0 - - -;
#X obj -365 1119 i;
#X floatatom -368 1147 5 0 0 0 - - -;
#X msg -259 1010 7;
#X obj -442 1190 select 0 1 2 3 4 5 6 7;
#X obj -287 1209 onebang;
#X obj -234 1208 onebang;
#X obj -185 1207 onebang;
#X obj -209 1188 bng 15 250 50 0 empty empty empty 17 7 0 10 -262144
-1 -1;
#X obj -188 1188 bng 15 250 50 0 empty empty empty 17 7 0 10 -262144
-1 -1;
#X obj -166 1188 bng 15 250 50 0 empty empty empty 17 7 0 10 -262144
-1 -1;
#X msg -372 1231 5;
#X msg -342 1231 6;
#X msg -309 1230 7;
#X msg -431 1252 /md8key/ctrl_master_layerSetGroupA/1 \$1;
#X obj -431 1278 s out;
#X floatatom -467 1251 5 0 0 0 - - -;
#X text -395 961 change layer set group A;
#N canvas 740 247 450 296 map 0;
#X obj 75 114 inlet;
#X obj 226 114 inlet;
#X obj 150 114 inlet;
#X obj 302 114 inlet;
#X obj 378 114 inlet;
#X obj 75 286 outlet;
#X obj 150 140 float \$1;
#X obj 226 140 float \$2;
#X obj 302 140 float \$3;
#X obj 378 140 float \$4;
#X text 306 275 by Adrian Rennertz;
#X obj 371 87 loadbang;
#X obj 75 177 expr if($f2 == $f3 \, -1 \, (((($f1-$f2) / ($f3-$f2))
* ($f5-$f4)) + $f4)) \; $f4 \; $f5 \;;
#X obj 75 265 limit;
#X msg 371 240 0;
#X text 70 18 inlets are (from left to right) input_value - input_range_low
- input_range_high - output_range_low - output_range_high. low and
high can be switched to invert the value. values that exceed the output
range will output the treshold.;
#X connect 0 0 12 0;
#X connect 1 0 7 0;
#X connect 2 0 6 0;
#X connect 3 0 8 0;
#X connect 4 0 9 0;
#X connect 6 0 12 1;
#X connect 7 0 12 2;
#X connect 8 0 12 3;
#X connect 9 0 12 4;
#X connect 11 0 9 0;
#X connect 11 0 8 0;
#X connect 11 0 7 0;
#X connect 11 0 6 0;
#X connect 11 0 14 0;
#X connect 12 0 13 0;
#X connect 12 1 13 1;
#X connect 12 2 13 2;
#X connect 13 0 5 0;
#X connect 14 0 13 3;
#X restore 1124 1076 pd map;
#X msg 1127 1038 0;
#X msg 1164 1039 1;
#X floatatom 1123 1121 5 0 0 0 - - -;
#X obj 1121 1152 i;
#X floatatom 1118 1180 5 0 0 0 - - -;
#X msg 1227 1043 7;
#X obj 1056 1218 select 0 1 2 3 4 5 6 7;
#X obj 1121 1248 onebang;
#X obj 1174 1247 onebang;
#X obj 1223 1246 onebang;
#X obj 1237 1229 bng 15 250 50 0 empty empty empty 17 7 0 10 -262144
-1 -1;
#X obj 1258 1229 bng 15 250 50 0 empty empty empty 17 7 0 10 -262144
-1 -1;
#X obj 1280 1229 bng 15 250 50 0 empty empty empty 17 7 0 10 -262144
-1 -1;
#X msg 1116 1267 5;
#X msg 1146 1267 6;
#X msg 1179 1266 7;
#X obj 1055 1311 s out;
#X floatatom 1021 1284 5 0 0 0 - - -;
#X text 1091 994 change layer set group B;
#X msg 1055 1285 /md8key/ctrl_master_layerSetGroupB/1 \$1;
#X obj 1220 1017 loadbang;
#X obj -278 981 loadbang;
#X floatatom 1463 659 5 0 0 0 - - -;
#X floatatom 1465 764 5 0 0 0 - - -;
#X floatatom 1465 831 5 0 0 0 - - -;
#X obj 1509 684 s out;
#X obj 1510 787 s out;
#X obj 1508 858 s out;
#X obj -277 1169 loadbang;
#X obj 1211 1185 loadbang;
#X text -208 1160 5 6 7;
#X text 1254 1209 5 6 7;
#X text 1279 1198 comment;
#X msg 1196 1039 4;
#X msg -290 1006 4;
#X obj -393 984 r RHYOUT3;
#X obj 1093 1017 r LHYOUT3;
#X obj -564 1060 r bangState3;
#X obj 962 1147 r bangState3;
#N canvas 740 247 450 296 map 0;
#X obj 75 114 inlet;
#X obj 226 114 inlet;
#X obj 150 114 inlet;
#X obj 302 114 inlet;
#X obj 378 114 inlet;
#X obj 75 286 outlet;
#X obj 150 140 float \$1;
#X obj 226 140 float \$2;
#X obj 302 140 float \$3;
#X obj 378 140 float \$4;
#X text 306 275 by Adrian Rennertz;
#X obj 371 87 loadbang;
#X obj 75 177 expr if($f2 == $f3 \, -1 \, (((($f1-$f2) / ($f3-$f2))
* ($f5-$f4)) + $f4)) \; $f4 \; $f5 \;;
#X obj 75 265 limit;
#X msg 371 240 0;
#X text 70 18 inlets are (from left to right) input_value - input_range_low
- input_range_high - output_range_low - output_range_high. low and
high can be switched to invert the value. values that exceed the output
range will output the treshold.;
#X connect 0 0 12 0;
#X connect 1 0 7 0;
#X connect 2 0 6 0;
#X connect 3 0 8 0;
#X connect 4 0 9 0;
#X connect 6 0 12 1;
#X connect 7 0 12 2;
#X connect 8 0 12 3;
#X connect 9 0 12 4;
#X connect 11 0 9 0;
#X connect 11 0 8 0;
#X connect 11 0 7 0;
#X connect 11 0 6 0;
#X connect 11 0 14 0;
#X connect 12 0 13 0;
#X connect 12 1 13 1;
#X connect 12 2 13 2;
#X connect 13 0 5 0;
#X connect 14 0 13 3;
#X restore 640 699 pd map;
#X msg 643 661 0;
#X msg 680 662 1;
#X msg 712 662 0;
#X floatatom 639 744 5 0 0 0 - - -;
#X obj 637 775 i;
#X floatatom 634 803 5 0 0 0 - - -;
#X obj 771 838 bng 15 250 50 0 empty empty empty 17 7 0 10 -262144
-1 -1;
#X obj 791 838 bng 15 250 50 0 empty empty empty 17 7 0 10 -262144
-1 -1;
#X obj 571 861 onebang;
#X obj 624 861 onebang;
#X msg 571 902 0;
#X msg 601 902 1;
#X obj 570 954 s out;
#X floatatom 526 918 5 0 0 0 - - -;
#X obj 724 637 loadbang;
#X obj 455 766 loadbang;
#X obj 557 831 select 0 1;
#X msg 743 666 1;
#X obj 470 860 r bangState1;
#N canvas 740 247 450 296 map 0;
#X obj 75 114 inlet;
#X obj 226 114 inlet;
#X obj 150 114 inlet;
#X obj 302 114 inlet;
#X obj 378 114 inlet;
#X obj 75 286 outlet;
#X obj 150 140 float \$1;
#X obj 226 140 float \$2;
#X obj 302 140 float \$3;
#X obj 378 140 float \$4;
#X text 306 275 by Adrian Rennertz;
#X obj 371 87 loadbang;
#X obj 75 177 expr if($f2 == $f3 \, -1 \, (((($f1-$f2) / ($f3-$f2))
* ($f5-$f4)) + $f4)) \; $f4 \; $f5 \;;
#X obj 75 265 limit;
#X msg 371 240 0;
#X text 70 18 inlets are (from left to right) input_value - input_range_low
- input_range_high - output_range_low - output_range_high. low and
high can be switched to invert the value. values that exceed the output
range will output the treshold.;
#X connect 0 0 12 0;
#X connect 1 0 7 0;
#X connect 2 0 6 0;
#X connect 3 0 8 0;
#X connect 4 0 9 0;
#X connect 6 0 12 1;
#X connect 7 0 12 2;
#X connect 8 0 12 3;
#X connect 9 0 12 4;
#X connect 11 0 9 0;
#X connect 11 0 8 0;
#X connect 11 0 7 0;
#X connect 11 0 6 0;
#X connect 11 0 14 0;
#X connect 12 0 13 0;
#X connect 12 1 13 1;
#X connect 12 2 13 2;
#X connect 13 0 5 0;
#X connect 14 0 13 3;
#X restore 585 1075 pd map;
#X msg 588 1037 0;
#X msg 625 1038 1;
#X msg 657 1038 0;
#X floatatom 584 1120 5 0 0 0 - - -;
#X obj 582 1151 i;
#X floatatom 579 1179 5 0 0 0 - - -;
#X obj 716 1214 bng 15 250 50 0 empty empty empty 17 7 0 10 -262144
-1 -1;
#X obj 736 1214 bng 15 250 50 0 empty empty empty 17 7 0 10 -262144
-1 -1;
#X obj 516 1237 onebang;
#X obj 569 1237 onebang;
#X msg 516 1278 0;
#X msg 546 1278 1;
#X obj 515 1330 s out;
#X floatatom 471 1294 5 0 0 0 - - -;
#X text 552 993 change layer set group A;
#X obj 669 1013 loadbang;
#X obj 309 1144 loadbang;
#X obj 502 1207 select 0 1;
#X msg 688 1042 1;
#X obj 324 1238 r bangState1;
#X msg 570 928 /md8key/ctrl_layer_auto_scaleOn/2 \$1;
#X obj 458 1015 r RHZOUT3;
#X obj 1508 630 r LHXOUT3;
#X floatatom -8 662 5 0 0 0 - - -;
#X obj 38 687 s out;
#X obj 37 633 r RHXOUT3;
#X obj 1509 738 r LHXOUT3;
#X obj 1509 811 r LHXOUT3;
#X floatatom 1461 930 5 0 0 0 - - -;
#X obj 1506 953 s out;
#X obj 1505 904 r LHXOUT3;
#X msg 1506 930 /md8key/ctrl_layer_movie_speedFactor/7 \$1;
#X obj 566 618 r RHZOUT3;
#X msg 1508 659 /md8key/ctrl_layer_transformer_matrix_deepSpace/2 \$1
;
#X msg 37 662 /md8key/ctrl_layer_transformer_matrix_deepSpace/7 \$1
;
#X msg 515 1305 /md8key/ctrl_layer_auto_scaleOn/7 \$1;
#X msg 1508 832 /md8key/ctrl_layer_alpha/3 \$1;
#X msg 1510 764 /md8key/ctrl_layer_movie_speedFactor/3 \$1;
#X floatatom 1939 674 5 0 0 0 - - -;
#X obj 1984 697 s out;
#X text 1939 620 rotation;
#X msg 1984 674 /md8key/ctrl_layer_rotation_x/2 \$1;
#X obj 1984 643 r RHZOUT3;
#X text 1473 632 2;
#X text 2 635 7;
#X text 1949 647 2;
#X text 1473 725 3;
#X connect 6 0 12 0;
#X connect 8 0 6 0;
#X connect 8 1 24 0;
#X connect 8 2 26 0;
#X connect 9 0 8 0;
#X connect 10 0 11 0;
#X connect 10 1 25 0;
#X connect 10 2 27 0;
#X connect 11 0 12 1;
#X connect 12 0 13 0;
#X connect 13 0 21 0;
#X connect 15 0 19 0;
#X connect 16 0 15 0;
#X connect 16 1 30 0;
#X connect 16 2 31 0;
#X connect 17 0 18 0;
#X connect 17 1 34 0;
#X connect 17 2 35 0;
#X connect 18 0 19 1;
#X connect 19 0 20 0;
#X connect 20 0 38 0;
#X connect 21 0 80 0;
#X connect 22 0 23 0;
#X connect 23 0 21 1;
#X connect 24 0 22 0;
#X connect 25 0 22 1;
#X connect 26 0 28 0;
#X connect 27 0 28 1;
#X connect 28 0 29 0;
#X connect 29 0 21 2;
#X connect 30 0 32 0;
#X connect 31 0 36 0;
#X connect 32 0 33 0;
#X connect 33 0 38 1;
#X connect 34 0 32 1;
#X connect 35 0 36 1;
#X connect 36 0 37 0;
#X connect 37 0 38 2;
#X connect 38 0 81 0;
#X connect 41 0 89 0;
#X connect 41 1 90 0;
#X connect 41 2 91 0;
#X connect 42 0 83 0;
#X connect 43 0 42 0;
#X connect 44 0 43 3;
#X connect 45 0 43 4;
#X connect 46 0 151 0;
#X connect 47 0 46 3;
#X connect 48 0 46 4;
#X connect 49 0 87 0;
#X connect 50 0 49 0;
#X connect 51 0 92 0;
#X connect 51 1 93 0;
#X connect 51 2 94 0;
#X connect 52 0 84 0;
#X connect 53 0 52 0;
#X connect 54 0 152 0;
#X connect 55 0 54 3;
#X connect 56 0 54 4;
#X connect 57 0 88 0;
#X connect 58 0 57 0;
#X connect 59 0 58 3;
#X connect 60 0 58 4;
#X connect 61 0 109 0;
#X connect 62 0 102 0;
#X connect 63 0 116 0;
#X connect 64 0 137 0;
#X connect 65 0 130 0;
#X connect 66 0 123 0;
#X connect 68 0 50 3;
#X connect 69 0 50 4;
#X connect 70 0 68 0;
#X connect 70 0 69 0;
#X connect 70 0 159 0;
#X connect 70 0 149 0;
#X connect 71 0 150 0;
#X connect 71 0 160 0;
#X connect 71 0 59 0;
#X connect 71 0 60 0;
#X connect 72 0 47 0;
#X connect 72 0 48 0;
#X connect 72 0 156 0;
#X connect 72 0 155 0;
#X connect 73 0 56 0;
#X connect 73 0 55 0;
#X connect 73 0 158 0;
#X connect 73 0 157 0;
#X connect 74 0 45 0;
#X connect 74 0 44 0;
#X connect 74 0 146 0;
#X connect 74 0 145 0;
#X connect 75 0 162 0;
#X connect 75 0 161 0;
#X connect 75 0 154 0;
#X connect 75 0 153 0;
#X connect 79 0 9 0;
#X connect 79 0 101 0;
#X connect 79 0 147 0;
#X connect 79 0 148 0;
#X connect 82 0 41 0;
#X connect 95 0 43 0;
#X connect 95 0 62 0;
#X connect 96 0 53 0;
#X connect 96 0 66 0;
#X connect 97 0 46 0;
#X connect 97 0 61 0;
#X connect 98 0 54 0;
#X connect 98 0 65 0;
#X connect 99 0 58 0;
#X connect 99 0 64 0;
#X connect 100 0 51 0;
#X connect 101 0 16 0;
#X connect 102 0 103 0;
#X connect 102 0 106 0;
#X connect 103 0 105 0;
#X connect 104 0 106 1;
#X connect 105 0 103 1;
#X connect 106 0 104 0;
#X connect 107 0 108 0;
#X connect 108 0 106 1;
#X connect 108 0 103 1;
#X connect 109 0 110 0;
#X connect 109 0 113 0;
#X connect 110 0 112 0;
#X connect 111 0 113 1;
#X connect 112 0 110 1;
#X connect 113 0 111 0;
#X connect 114 0 115 0;
#X connect 115 0 113 1;
#X connect 115 0 110 1;
#X connect 116 0 117 0;
#X connect 116 0 120 0;
#X connect 117 0 119 0;
#X connect 118 0 120 1;
#X connect 119 0 117 1;
#X connect 120 0 118 0;
#X connect 121 0 122 0;
#X connect 122 0 120 1;
#X connect 122 0 117 1;
#X connect 123 0 124 0;
#X connect 123 0 127 0;
#X connect 124 0 126 0;
#X connect 125 0 127 1;
#X connect 126 0 124 1;
#X connect 127 0 125 0;
#X connect 128 0 129 0;
#X connect 129 0 127 1;
#X connect 129 0 124 1;
#X connect 130 0 131 0;
#X connect 130 0 134 0;
#X connect 131 0 133 0;
#X connect 132 0 134 1;
#X connect 133 0 131 1;
#X connect 134 0 132 0;
#X connect 135 0 136 0;
#X connect 136 0 134 1;
#X connect 136 0 131 1;
#X connect 137 0 138 0;
#X connect 137 0 141 0;
#X connect 138 0 140 0;
#X connect 139 0 141 1;
#X connect 140 0 138 1;
#X connect 141 0 139 0;
#X connect 142 0 143 0;
#X connect 143 0 141 1;
#X connect 143 0 138 1;
#X connect 144 0 50 0;
#X connect 144 0 63 0;
#X connect 145 0 43 1;
#X connect 146 0 43 2;
#X connect 147 0 10 0;
#X connect 148 0 17 0;
#X connect 149 0 50 1;
#X connect 150 0 58 1;
#X connect 151 0 86 0;
#X connect 152 0 85 0;
#X connect 153 0 53 1;
#X connect 154 0 53 2;
#X connect 155 0 46 1;
#X connect 156 0 46 2;
#X connect 157 0 54 1;
#X connect 158 0 54 2;
#X connect 159 0 50 2;
#X connect 160 0 58 2;
#X connect 161 0 53 3;
#X connect 162 0 53 4;
#X connect 164 0 167 0;
#X connect 165 0 164 1;
#X connect 166 0 164 2;
#X connect 167 0 168 0;
#X connect 168 0 169 0;
#X connect 169 0 171 0;
#X connect 170 0 164 4;
#X connect 171 4 172 0;
#X connect 171 5 173 0;
#X connect 171 6 174 0;
#X connect 172 0 175 0;
#X connect 172 0 178 0;
#X connect 173 0 176 0;
#X connect 173 0 179 0;
#X connect 174 0 177 0;
#X connect 174 0 180 0;
#X connect 175 0 173 1;
#X connect 175 0 174 1;
#X connect 176 0 172 1;
#X connect 176 0 174 1;
#X connect 177 0 172 1;
#X connect 177 0 173 1;
#X connect 178 0 183 0;
#X connect 178 0 181 0;
#X connect 179 0 183 0;
#X connect 179 0 181 0;
#X connect 180 0 183 0;
#X connect 180 0 181 0;
#X connect 181 0 182 0;
#X connect 185 0 188 0;
#X connect 186 0 185 1;
#X connect 187 0 185 2;
#X connect 188 0 189 0;
#X connect 189 0 190 0;
#X connect 190 0 192 0;
#X connect 191 0 185 4;
#X connect 192 4 193 0;
#X connect 192 5 194 0;
#X connect 192 6 195 0;
#X connect 193 0 196 0;
#X connect 193 0 199 0;
#X connect 194 0 197 0;
#X connect 194 0 200 0;
#X connect 195 0 198 0;
#X connect 195 0 201 0;
#X connect 196 0 194 1;
#X connect 196 0 195 1;
#X connect 197 0 193 1;
#X connect 197 0 195 1;
#X connect 198 0 193 1;
#X connect 198 0 194 1;
#X connect 199 0 203 0;
#X connect 199 0 205 0;
#X connect 200 0 203 0;
#X connect 200 0 205 0;
#X connect 201 0 203 0;
#X connect 201 0 205 0;
#X connect 205 0 202 0;
#X connect 206 0 191 0;
#X connect 206 0 213 0;
#X connect 206 0 187 0;
#X connect 206 0 186 0;
#X connect 207 0 165 0;
#X connect 207 0 166 0;
#X connect 207 0 214 0;
#X connect 207 0 170 0;
#X connect 208 0 175 0;
#X connect 208 0 176 0;
#X connect 208 0 177 0;
#X connect 209 0 196 0;
#X connect 209 0 197 0;
#X connect 209 0 198 0;
#X connect 213 0 185 3;
#X connect 214 0 164 3;
#X connect 215 0 164 0;
#X connect 216 0 185 0;
#X connect 217 0 178 0;
#X connect 218 0 199 0;
#X connect 219 0 222 0;
#X connect 220 0 219 1;
#X connect 221 0 219 2;
#X connect 222 0 223 0;
#X connect 223 0 224 0;
#X connect 224 0 226 0;
#X connect 225 0 219 4;
#X connect 226 4 227 0;
#X connect 226 5 228 0;
#X connect 226 6 229 0;
#X connect 227 0 230 0;
#X connect 227 0 233 0;
#X connect 228 0 231 0;
#X connect 228 0 234 0;
#X connect 229 0 232 0;
#X connect 229 0 235 0;
#X connect 230 0 228 1;
#X connect 230 0 229 1;
#X connect 231 0 227 1;
#X connect 231 0 229 1;
#X connect 232 0 227 1;
#X connect 232 0 228 1;
#X connect 233 0 238 0;
#X connect 233 0 236 0;
#X connect 234 0 238 0;
#X connect 234 0 236 0;
#X connect 235 0 238 0;
#X connect 235 0 236 0;
#X connect 236 0 237 0;
#X connect 240 0 243 0;
#X connect 241 0 240 1;
#X connect 242 0 240 2;
#X connect 243 0 244 0;
#X connect 244 0 245 0;
#X connect 245 0 247 0;
#X connect 246 0 240 4;
#X connect 247 4 248 0;
#X connect 247 5 249 0;
#X connect 247 6 250 0;
#X connect 248 0 251 0;
#X connect 248 0 254 0;
#X connect 249 0 252 0;
#X connect 249 0 255 0;
#X connect 250 0 253 0;
#X connect 250 0 256 0;
#X connect 251 0 249 1;
#X connect 251 0 250 1;
#X connect 252 0 248 1;
#X connect 252 0 250 1;
#X connect 253 0 248 1;
#X connect 253 0 249 1;
#X connect 254 0 258 0;
#X connect 254 0 260 0;
#X connect 255 0 258 0;
#X connect 255 0 260 0;
#X connect 256 0 258 0;
#X connect 256 0 260 0;
#X connect 260 0 257 0;
#X connect 261 0 246 0;
#X connect 261 0 274 0;
#X connect 261 0 242 0;
#X connect 261 0 241 0;
#X connect 262 0 220 0;
#X connect 262 0 221 0;
#X connect 262 0 275 0;
#X connect 262 0 225 0;
#X connect 263 0 334 0;
#X connect 264 0 338 0;
#X connect 265 0 337 0;
#X connect 269 0 230 0;
#X connect 269 0 231 0;
#X connect 269 0 232 0;
#X connect 270 0 251 0;
#X connect 270 0 252 0;
#X connect 270 0 253 0;
#X connect 274 0 240 3;
#X connect 275 0 219 3;
#X connect 276 0 219 0;
#X connect 277 0 240 0;
#X connect 278 0 233 0;
#X connect 279 0 254 0;
#X connect 280 0 284 0;
#X connect 281 0 280 1;
#X connect 282 0 280 2;
#X connect 283 0 280 3;
#X connect 284 0 285 0;
#X connect 285 0 286 0;
#X connect 286 0 297 0;
#X connect 287 0 290 1;
#X connect 288 0 289 1;
#X connect 289 0 287 0;
#X connect 289 0 291 0;
#X connect 290 0 288 0;
#X connect 290 0 292 0;
#X connect 291 0 294 0;
#X connect 291 0 321 0;
#X connect 292 0 294 0;
#X connect 292 0 321 0;
#X connect 295 0 281 0;
#X connect 295 0 282 0;
#X connect 295 0 283 0;
#X connect 295 0 298 0;
#X connect 296 0 287 0;
#X connect 296 0 288 0;
#X connect 297 0 289 0;
#X connect 297 1 290 0;
#X connect 298 0 280 4;
#X connect 299 0 292 0;
#X connect 300 0 304 0;
#X connect 301 0 300 1;
#X connect 302 0 300 2;
#X connect 303 0 300 3;
#X connect 304 0 305 0;
#X connect 305 0 306 0;
#X connect 306 0 318 0;
#X connect 307 0 310 1;
#X connect 308 0 309 1;
#X connect 309 0 307 0;
#X connect 309 0 311 0;
#X connect 310 0 308 0;
#X connect 310 0 312 0;
#X connect 311 0 314 0;
#X connect 311 0 336 0;
#X connect 312 0 314 0;
#X connect 312 0 336 0;
#X connect 316 0 301 0;
#X connect 316 0 302 0;
#X connect 316 0 303 0;
#X connect 316 0 319 0;
#X connect 317 0 307 0;
#X connect 317 0 308 0;
#X connect 318 0 309 0;
#X connect 318 1 310 0;
#X connect 319 0 300 4;
#X connect 320 0 312 0;
#X connect 321 0 293 0;
#X connect 322 0 300 0;
#X connect 323 0 334 0;
#X connect 324 0 335 0;
#X connect 326 0 335 0;
#X connect 327 0 338 0;
#X connect 328 0 337 0;
#X connect 329 0 332 0;
#X connect 331 0 332 0;
#X connect 332 0 330 0;
#X connect 333 0 280 0;
#X connect 334 0 266 0;
#X connect 335 0 325 0;
#X connect 336 0 313 0;
#X connect 337 0 268 0;
#X connect 338 0 267 0;
#X connect 339 0 342 0;
#X connect 342 0 340 0;
#X connect 343 0 342 0;
#X restore 325 -829 pd position3;
#X msg 689 -656 connect 10.211.55.2 8002;
#X connect 2 0 1 0;
#X connect 3 0 9 0;
#X connect 8 0 9 0;
#X connect 8 1 5 0;
#X connect 9 0 4 0;
#X connect 10 0 11 0;
#X connect 11 0 12 0;
#X connect 11 1 12 1;
#X connect 12 0 13 0;
#X connect 17 0 16 0;
#X connect 17 0 8 0;
#X connect 21 0 9 0;
